<svg width="152" height="34" viewBox="0 0 152 34" fill="none" xmlns="http://www.w3.org/2000/svg">
<path d="M5.95238 7.28571C6.61905 7.28571 7.14286 6.75143 7.14286 6.07143C7.14286 5.39143 6.61905 4.85714 5.95238 4.85714C5.28571 4.85714 4.7619 5.39143 4.7619 6.07143C4.7619 6.75143 5.28571 7.28571 5.95238 7.28571ZM8.33333 7.28571C9 7.28571 9.52381 6.75143 9.52381 6.07143C9.52381 5.39143 9 4.85714 8.33333 4.85714C7.66667 4.85714 7.14286 5.39143 7.14286 6.07143C7.14286 6.75143 7.66667 7.28571 8.33333 7.28571ZM3.57143 7.28571C4.2381 7.28571 4.7619 6.75143 4.7619 6.07143C4.7619 5.39143 4.2381 4.85714 3.57143 4.85714C2.90476 4.85714 2.38095 5.39143 2.38095 6.07143C2.38095 6.75143 2.90476 7.28571 3.57143 7.28571ZM1.19048 7.28571C1.85714 7.28571 2.38095 6.75143 2.38095 6.07143C2.38095 5.39143 1.85714 4.85714 1.19048 4.85714C0.523809 4.85714 0 5.39143 0 6.07143C0 6.75143 0.523809 7.28571 1.19048 7.28571ZM10.7143 7.28571C11.381 7.28571 11.9048 6.75143 11.9048 6.07143C11.9048 5.39143 11.381 4.85714 10.7143 4.85714C10.0476 4.85714 9.52381 5.39143 9.52381 6.07143C9.52381 6.75143 10.0476 7.28571 10.7143 7.28571ZM8.33333 9.71429C9 9.71429 9.52381 9.18 9.52381 8.5C9.52381 7.82 9 7.28571 8.33333 7.28571C7.66667 7.28571 7.14286 7.82 7.14286 8.5C7.14286 9.18 7.66667 9.71429 8.33333 9.71429ZM15.4762 9.71429C16.1429 9.71429 16.6667 9.18 16.6667 8.5C16.6667 7.82 16.1429 7.28571 15.4762 7.28571C14.8095 7.28571 14.2857 7.82 14.2857 8.5C14.2857 9.18 14.8095 9.71429 15.4762 9.71429ZM3.57143 9.71429C4.2381 9.71429 4.7619 9.18 4.7619 8.5C4.7619 7.82 4.2381 7.28571 3.57143 7.28571C2.90476 7.28571 2.38095 7.82 2.38095 8.5C2.38095 9.18 2.90476 9.71429 3.57143 9.71429ZM10.7143 9.71429C11.381 9.71429 11.9048 9.18 11.9048 8.5C11.9048 7.82 11.381 7.28571 10.7143 7.28571C10.0476 7.28571 9.52381 7.82 9.52381 8.5C9.52381 9.18 10.0476 9.71429 10.7143 9.71429ZM13.0952 9.71429C13.7619 9.71429 14.2857 9.18 14.2857 8.5C14.2857 7.82 13.7619 7.28571 13.0952 7.28571C12.4286 7.28571 11.9048 7.82 11.9048 8.5C11.9048 9.18 12.4286 9.71429 13.0952 9.71429ZM1.19048 9.71429C1.85714 9.71429 2.38095 9.18 2.38095 8.5C2.38095 7.82 1.85714 7.28571 1.19048 7.28571C0.523809 7.28571 0 7.82 0 8.5C0 9.18 0.523809 9.71429 1.19048 9.71429ZM5.95238 9.71429C6.61905 9.71429 7.14286 9.18 7.14286 8.5C7.14286 7.82 6.61905 7.28571 5.95238 7.28571C5.28571 7.28571 4.7619 7.82 4.7619 8.5C4.7619 9.18 5.28571 9.71429 5.95238 9.71429ZM3.57143 12.1429C4.2381 12.1429 4.7619 11.6086 4.7619 10.9286C4.7619 10.2486 4.2381 9.71429 3.57143 9.71429C2.90476 9.71429 2.38095 10.2486 2.38095 10.9286C2.38095 11.6086 2.90476 12.1429 3.57143 12.1429ZM15.4762 12.1429C16.1429 12.1429 16.6667 11.6086 16.6667 10.9286C16.6667 10.2486 16.1429 9.71429 15.4762 9.71429C14.8095 9.71429 14.2857 10.2486 14.2857 10.9286C14.2857 11.6086 14.8095 12.1429 15.4762 12.1429ZM1.19048 12.1429C1.85714 12.1429 2.38095 11.6086 2.38095 10.9286C2.38095 10.2486 1.85714 9.71429 1.19048 9.71429C0.523809 9.71429 0 10.2486 0 10.9286C0 11.6086 0.523809 12.1429 1.19048 12.1429ZM13.0952 12.1429C13.7619 12.1429 14.2857 11.6086 14.2857 10.9286C14.2857 10.2486 13.7619 9.71429 13.0952 9.71429C12.4286 9.71429 11.9048 10.2486 11.9048 10.9286C11.9048 11.6086 12.4286 12.1429 13.0952 12.1429ZM17.8571 12.1429C18.5238 12.1429 19.0476 11.6086 19.0476 10.9286C19.0476 10.2486 18.5238 9.71429 17.8571 9.71429C17.1905 9.71429 16.6667 10.2486 16.6667 10.9286C16.6667 11.6086 17.1905 12.1429 17.8571 12.1429ZM15.4762 14.5714C16.1429 14.5714 16.6667 14.0371 16.6667 13.3571C16.6667 12.6771 16.1429 12.1429 15.4762 12.1429C14.8095 12.1429 14.2857 12.6771 14.2857 13.3571C14.2857 14.0371 14.8095 14.5714 15.4762 14.5714ZM17.8571 14.5714C18.5238 14.5714 19.0476 14.0371 19.0476 13.3571C19.0476 12.6771 18.5238 12.1429 17.8571 12.1429C17.1905 12.1429 16.6667 12.6771 16.6667 13.3571C16.6667 14.0371 17.1905 14.5714 17.8571 14.5714ZM3.57143 14.5714C4.2381 14.5714 4.7619 14.0371 4.7619 13.3571C4.7619 12.6771 4.2381 12.1429 3.57143 12.1429C2.90476 12.1429 2.38095 12.6771 2.38095 13.3571C2.38095 14.0371 2.90476 14.5714 3.57143 14.5714ZM1.19048 14.5714C1.85714 14.5714 2.38095 14.0371 2.38095 13.3571C2.38095 12.6771 1.85714 12.1429 1.19048 12.1429C0.523809 12.1429 0 12.6771 0 13.3571C0 14.0371 0.523809 14.5714 1.19048 14.5714ZM1.19048 17C1.85714 17 2.38095 16.4657 2.38095 15.7857C2.38095 15.1057 1.85714 14.5714 1.19048 14.5714C0.523809 14.5714 0 15.1057 0 15.7857C0 16.4657 0.523809 17 1.19048 17ZM3.57143 17C4.2381 17 4.7619 16.4657 4.7619 15.7857C4.7619 15.1057 4.2381 14.5714 3.57143 14.5714C2.90476 14.5714 2.38095 15.1057 2.38095 15.7857C2.38095 16.4657 2.90476 17 3.57143 17ZM15.4762 17C16.1429 17 16.6667 16.4657 16.6667 15.7857C16.6667 15.1057 16.1429 14.5714 15.4762 14.5714C14.8095 14.5714 14.2857 15.1057 14.2857 15.7857C14.2857 16.4657 14.8095 17 15.4762 17ZM17.8571 17C18.5238 17 19.0476 16.4657 19.0476 15.7857C19.0476 15.1057 18.5238 14.5714 17.8571 14.5714C17.1905 14.5714 16.6667 15.1057 16.6667 15.7857C16.6667 16.4657 17.1905 17 17.8571 17ZM1.19048 19.4286C1.85714 19.4286 2.38095 18.8943 2.38095 18.2143C2.38095 17.5343 1.85714 17 1.19048 17C0.523809 17 0 17.5343 0 18.2143C0 18.8943 0.523809 19.4286 1.19048 19.4286ZM15.4762 19.4286C16.1429 19.4286 16.6667 18.8943 16.6667 18.2143C16.6667 17.5343 16.1429 17 15.4762 17C14.8095 17 14.2857 17.5343 14.2857 18.2143C14.2857 18.8943 14.8095 19.4286 15.4762 19.4286ZM3.57143 19.4286C4.2381 19.4286 4.7619 18.8943 4.7619 18.2143C4.7619 17.5343 4.2381 17 3.57143 17C2.90476 17 2.38095 17.5343 2.38095 18.2143C2.38095 18.8943 2.90476 19.4286 3.57143 19.4286ZM17.8571 19.4286C18.5238 19.4286 19.0476 18.8943 19.0476 18.2143C19.0476 17.5343 18.5238 17 17.8571 17C17.1905 17 16.6667 17.5343 16.6667 18.2143C16.6667 18.8943 17.1905 19.4286 17.8571 19.4286ZM17.8571 21.8571C18.5238 21.8571 19.0476 21.3229 19.0476 20.6429C19.0476 19.9629 18.5238 19.4286 17.8571 19.4286C17.1905 19.4286 16.6667 19.9629 16.6667 20.6429C16.6667 21.3229 17.1905 21.8571 17.8571 21.8571ZM15.4762 21.8571C16.1429 21.8571 16.6667 21.3229 16.6667 20.6429C16.6667 19.9629 16.1429 19.4286 15.4762 19.4286C14.8095 19.4286 14.2857 19.9629 14.2857 20.6429C14.2857 21.3229 14.8095 21.8571 15.4762 21.8571ZM3.57143 21.8571C4.2381 21.8571 4.7619 21.3229 4.7619 20.6429C4.7619 19.9629 4.2381 19.4286 3.57143 19.4286C2.90476 19.4286 2.38095 19.9629 2.38095 20.6429C2.38095 21.3229 2.90476 21.8571 3.57143 21.8571ZM1.19048 21.8571C1.85714 21.8571 2.38095 21.3229 2.38095 20.6429C2.38095 19.9629 1.85714 19.4286 1.19048 19.4286C0.523809 19.4286 0 19.9629 0 20.6429C0 21.3229 0.523809 21.8571 1.19048 21.8571ZM13.0952 24.2857C13.7619 24.2857 14.2857 23.7514 14.2857 23.0714C14.2857 22.3914 13.7619 21.8571 13.0952 21.8571C12.4286 21.8571 11.9048 22.3914 11.9048 23.0714C11.9048 23.7514 12.4286 24.2857 13.0952 24.2857ZM3.57143 24.2857C4.2381 24.2857 4.7619 23.7514 4.7619 23.0714C4.7619 22.3914 4.2381 21.8571 3.57143 21.8571C2.90476 21.8571 2.38095 22.3914 2.38095 23.0714C2.38095 23.7514 2.90476 24.2857 3.57143 24.2857ZM15.4762 24.2857C16.1429 24.2857 16.6667 23.7514 16.6667 23.0714C16.6667 22.3914 16.1429 21.8571 15.4762 21.8571C14.8095 21.8571 14.2857 22.3914 14.2857 23.0714C14.2857 23.7514 14.8095 24.2857 15.4762 24.2857ZM1.19048 24.2857C1.85714 24.2857 2.38095 23.7514 2.38095 23.0714C2.38095 22.3914 1.85714 21.8571 1.19048 21.8571C0.523809 21.8571 0 22.3914 0 23.0714C0 23.7514 0.523809 24.2857 1.19048 24.2857ZM17.8571 24.2857C18.5238 24.2857 19.0476 23.7514 19.0476 23.0714C19.0476 22.3914 18.5238 21.8571 17.8571 21.8571C17.1905 21.8571 16.6667 22.3914 16.6667 23.0714C16.6667 23.7514 17.1905 24.2857 17.8571 24.2857ZM1.19048 26.7143C1.85714 26.7143 2.38095 26.18 2.38095 25.5C2.38095 24.82 1.85714 24.2857 1.19048 24.2857C0.523809 24.2857 0 24.82 0 25.5C0 26.18 0.523809 26.7143 1.19048 26.7143ZM3.57143 26.7143C4.2381 26.7143 4.7619 26.18 4.7619 25.5C4.7619 24.82 4.2381 24.2857 3.57143 24.2857C2.90476 24.2857 2.38095 24.82 2.38095 25.5C2.38095 26.18 2.90476 26.7143 3.57143 26.7143ZM5.95238 26.7143C6.61905 26.7143 7.14286 26.18 7.14286 25.5C7.14286 24.82 6.61905 24.2857 5.95238 24.2857C5.28571 24.2857 4.7619 24.82 4.7619 25.5C4.7619 26.18 5.28571 26.7143 5.95238 26.7143ZM15.4762 26.7143C16.1429 26.7143 16.6667 26.18 16.6667 25.5C16.6667 24.82 16.1429 24.2857 15.4762 24.2857C14.8095 24.2857 14.2857 24.82 14.2857 25.5C14.2857 26.18 14.8095 26.7143 15.4762 26.7143ZM13.0952 26.7143C13.7619 26.7143 14.2857 26.18 14.2857 25.5C14.2857 24.82 13.7619 24.2857 13.0952 24.2857C12.4286 24.2857 11.9048 24.82 11.9048 25.5C11.9048 26.18 12.4286 26.7143 13.0952 26.7143ZM10.7143 26.7143C11.381 26.7143 11.9048 26.18 11.9048 25.5C11.9048 24.82 11.381 24.2857 10.7143 24.2857C10.0476 24.2857 9.52381 24.82 9.52381 25.5C9.52381 26.18 10.0476 26.7143 10.7143 26.7143ZM8.33333 26.7143C9 26.7143 9.52381 26.18 9.52381 25.5C9.52381 24.82 9 24.2857 8.33333 24.2857C7.66667 24.2857 7.14286 24.82 7.14286 25.5C7.14286 26.18 7.66667 26.7143 8.33333 26.7143ZM1.19048 29.1429C1.85714 29.1429 2.38095 28.6086 2.38095 27.9286C2.38095 27.2486 1.85714 26.7143 1.19048 26.7143C0.523809 26.7143 0 27.2486 0 27.9286C0 28.6086 0.523809 29.1429 1.19048 29.1429ZM3.57143 29.1429C4.2381 29.1429 4.7619 28.6086 4.7619 27.9286C4.7619 27.2486 4.2381 26.7143 3.57143 26.7143C2.90476 26.7143 2.38095 27.2486 2.38095 27.9286C2.38095 28.6086 2.90476 29.1429 3.57143 29.1429ZM10.7143 29.1429C11.381 29.1429 11.9048 28.6086 11.9048 27.9286C11.9048 27.2486 11.381 26.7143 10.7143 26.7143C10.0476 26.7143 9.52381 27.2486 9.52381 27.9286C9.52381 28.6086 10.0476 29.1429 10.7143 29.1429ZM5.95238 29.1429C6.61905 29.1429 7.14286 28.6086 7.14286 27.9286C7.14286 27.2486 6.61905 26.7143 5.95238 26.7143C5.28571 26.7143 4.7619 27.2486 4.7619 27.9286C4.7619 28.6086 5.28571 29.1429 5.95238 29.1429ZM8.33333 29.1429C9 29.1429 9.52381 28.6086 9.52381 27.9286C9.52381 27.2486 9 26.7143 8.33333 26.7143C7.66667 26.7143 7.14286 27.2486 7.14286 27.9286C7.14286 28.6086 7.66667 29.1429 8.33333 29.1429Z" fill="#10223E"/>
<path d="M28.5238 7.28571C29.1905 7.28571 29.7143 6.75143 29.7143 6.07143C29.7143 5.39143 29.1905 4.85714 28.5238 4.85714C27.8571 4.85714 27.3333 5.39143 27.3333 6.07143C27.3333 6.75143 27.8571 7.28571 28.5238 7.28571ZM30.9048 7.28571C31.5714 7.28571 32.0952 6.75143 32.0952 6.07143C32.0952 5.39143 31.5714 4.85714 30.9048 4.85714C30.2381 4.85714 29.7143 5.39143 29.7143 6.07143C29.7143 6.75143 30.2381 7.28571 30.9048 7.28571ZM33.2857 7.28571C33.9524 7.28571 34.4762 6.75143 34.4762 6.07143C34.4762 5.39143 33.9524 4.85714 33.2857 4.85714C32.619 4.85714 32.0952 5.39143 32.0952 6.07143C32.0952 6.75143 32.619 7.28571 33.2857 7.28571ZM35.6667 7.28571C36.3333 7.28571 36.8571 6.75143 36.8571 6.07143C36.8571 5.39143 36.3333 4.85714 35.6667 4.85714C35 4.85714 34.4762 5.39143 34.4762 6.07143C34.4762 6.75143 35 7.28571 35.6667 7.28571ZM26.1429 7.28571C26.8095 7.28571 27.3333 6.75143 27.3333 6.07143C27.3333 5.39143 26.8095 4.85714 26.1429 4.85714C25.4762 4.85714 24.9524 5.39143 24.9524 6.07143C24.9524 6.75143 25.4762 7.28571 26.1429 7.28571ZM23.7619 7.28571C24.4286 7.28571 24.9524 6.75143 24.9524 6.07143C24.9524 5.39143 24.4286 4.85714 23.7619 4.85714C23.0952 4.85714 22.5714 5.39143 22.5714 6.07143C22.5714 6.75143 23.0952 7.28571 23.7619 7.28571ZM33.2857 9.71429C33.9524 9.71429 34.4762 9.18 34.4762 8.5C34.4762 7.82 33.9524 7.28571 33.2857 7.28571C32.619 7.28571 32.0952 7.82 32.0952 8.5C32.0952 9.18 32.619 9.71429 33.2857 9.71429ZM23.7619 9.71429C24.4286 9.71429 24.9524 9.18 24.9524 8.5C24.9524 7.82 24.4286 7.28571 23.7619 7.28571C23.0952 7.28571 22.5714 7.82 22.5714 8.5C22.5714 9.18 23.0952 9.71429 23.7619 9.71429ZM35.6667 9.71429C36.3333 9.71429 36.8571 9.18 36.8571 8.5C36.8571 7.82 36.3333 7.28571 35.6667 7.28571C35 7.28571 34.4762 7.82 34.4762 8.5C34.4762 9.18 35 9.71429 35.6667 9.71429ZM26.1429 9.71429C26.8095 9.71429 27.3333 9.18 27.3333 8.5C27.3333 7.82 26.8095 7.28571 26.1429 7.28571C25.4762 7.28571 24.9524 7.82 24.9524 8.5C24.9524 9.18 25.4762 9.71429 26.1429 9.71429ZM28.5238 9.71429C29.1905 9.71429 29.7143 9.18 29.7143 8.5C29.7143 7.82 29.1905 7.28571 28.5238 7.28571C27.8571 7.28571 27.3333 7.82 27.3333 8.5C27.3333 9.18 27.8571 9.71429 28.5238 9.71429ZM30.9048 9.71429C31.5714 9.71429 32.0952 9.18 32.0952 8.5C32.0952 7.82 31.5714 7.28571 30.9048 7.28571C30.2381 7.28571 29.7143 7.82 29.7143 8.5C29.7143 9.18 30.2381 9.71429 30.9048 9.71429ZM26.1429 12.1429C26.8095 12.1429 27.3333 11.6086 27.3333 10.9286C27.3333 10.2486 26.8095 9.71429 26.1429 9.71429C25.4762 9.71429 24.9524 10.2486 24.9524 10.9286C24.9524 11.6086 25.4762 12.1429 26.1429 12.1429ZM23.7619 12.1429C24.4286 12.1429 24.9524 11.6086 24.9524 10.9286C24.9524 10.2486 24.4286 9.71429 23.7619 9.71429C23.0952 9.71429 22.5714 10.2486 22.5714 10.9286C22.5714 11.6086 23.0952 12.1429 23.7619 12.1429ZM23.7619 14.5714C24.4286 14.5714 24.9524 14.0371 24.9524 13.3571C24.9524 12.6771 24.4286 12.1429 23.7619 12.1429C23.0952 12.1429 22.5714 12.6771 22.5714 13.3571C22.5714 14.0371 23.0952 14.5714 23.7619 14.5714ZM26.1429 14.5714C26.8095 14.5714 27.3333 14.0371 27.3333 13.3571C27.3333 12.6771 26.8095 12.1429 26.1429 12.1429C25.4762 12.1429 24.9524 12.6771 24.9524 13.3571C24.9524 14.0371 25.4762 14.5714 26.1429 14.5714ZM35.6667 17C36.3333 17 36.8571 16.4657 36.8571 15.7857C36.8571 15.1057 36.3333 14.5714 35.6667 14.5714C35 14.5714 34.4762 15.1057 34.4762 15.7857C34.4762 16.4657 35 17 35.6667 17ZM26.1429 17C26.8095 17 27.3333 16.4657 27.3333 15.7857C27.3333 15.1057 26.8095 14.5714 26.1429 14.5714C25.4762 14.5714 24.9524 15.1057 24.9524 15.7857C24.9524 16.4657 25.4762 17 26.1429 17ZM28.5238 17C29.1905 17 29.7143 16.4657 29.7143 15.7857C29.7143 15.1057 29.1905 14.5714 28.5238 14.5714C27.8571 14.5714 27.3333 15.1057 27.3333 15.7857C27.3333 16.4657 27.8571 17 28.5238 17ZM30.9048 17C31.5714 17 32.0952 16.4657 32.0952 15.7857C32.0952 15.1057 31.5714 14.5714 30.9048 14.5714C30.2381 14.5714 29.7143 15.1057 29.7143 15.7857C29.7143 16.4657 30.2381 17 30.9048 17ZM33.2857 17C33.9524 17 34.4762 16.4657 34.4762 15.7857C34.4762 15.1057 33.9524 14.5714 33.2857 14.5714C32.619 14.5714 32.0952 15.1057 32.0952 15.7857C32.0952 16.4657 32.619 17 33.2857 17ZM23.7619 17C24.4286 17 24.9524 16.4657 24.9524 15.7857C24.9524 15.1057 24.4286 14.5714 23.7619 14.5714C23.0952 14.5714 22.5714 15.1057 22.5714 15.7857C22.5714 16.4657 23.0952 17 23.7619 17ZM35.6667 19.4286C36.3333 19.4286 36.8571 18.8943 36.8571 18.2143C36.8571 17.5343 36.3333 17 35.6667 17C35 17 34.4762 17.5343 34.4762 18.2143C34.4762 18.8943 35 19.4286 35.6667 19.4286ZM23.7619 19.4286C24.4286 19.4286 24.9524 18.8943 24.9524 18.2143C24.9524 17.5343 24.4286 17 23.7619 17C23.0952 17 22.5714 17.5343 22.5714 18.2143C22.5714 18.8943 23.0952 19.4286 23.7619 19.4286ZM33.2857 19.4286C33.9524 19.4286 34.4762 18.8943 34.4762 18.2143C34.4762 17.5343 33.9524 17 33.2857 17C32.619 17 32.0952 17.5343 32.0952 18.2143C32.0952 18.8943 32.619 19.4286 33.2857 19.4286ZM30.9048 19.4286C31.5714 19.4286 32.0952 18.8943 32.0952 18.2143C32.0952 17.5343 31.5714 17 30.9048 17C30.2381 17 29.7143 17.5343 29.7143 18.2143C29.7143 18.8943 30.2381 19.4286 30.9048 19.4286ZM28.5238 19.4286C29.1905 19.4286 29.7143 18.8943 29.7143 18.2143C29.7143 17.5343 29.1905 17 28.5238 17C27.8571 17 27.3333 17.5343 27.3333 18.2143C27.3333 18.8943 27.8571 19.4286 28.5238 19.4286ZM26.1429 19.4286C26.8095 19.4286 27.3333 18.8943 27.3333 18.2143C27.3333 17.5343 26.8095 17 26.1429 17C25.4762 17 24.9524 17.5343 24.9524 18.2143C24.9524 18.8943 25.4762 19.4286 26.1429 19.4286ZM23.7619 21.8571C24.4286 21.8571 24.9524 21.3229 24.9524 20.6429C24.9524 19.9629 24.4286 19.4286 23.7619 19.4286C23.0952 19.4286 22.5714 19.9629 22.5714 20.6429C22.5714 21.3229 23.0952 21.8571 23.7619 21.8571ZM26.1429 21.8571C26.8095 21.8571 27.3333 21.3229 27.3333 20.6429C27.3333 19.9629 26.8095 19.4286 26.1429 19.4286C25.4762 19.4286 24.9524 19.9629 24.9524 20.6429C24.9524 21.3229 25.4762 21.8571 26.1429 21.8571ZM23.7619 24.2857C24.4286 24.2857 24.9524 23.7514 24.9524 23.0714C24.9524 22.3914 24.4286 21.8571 23.7619 21.8571C23.0952 21.8571 22.5714 22.3914 22.5714 23.0714C22.5714 23.7514 23.0952 24.2857 23.7619 24.2857ZM26.1429 24.2857C26.8095 24.2857 27.3333 23.7514 27.3333 23.0714C27.3333 22.3914 26.8095 21.8571 26.1429 21.8571C25.4762 21.8571 24.9524 22.3914 24.9524 23.0714C24.9524 23.7514 25.4762 24.2857 26.1429 24.2857ZM26.1429 26.7143C26.8095 26.7143 27.3333 26.18 27.3333 25.5C27.3333 24.82 26.8095 24.2857 26.1429 24.2857C25.4762 24.2857 24.9524 24.82 24.9524 25.5C24.9524 26.18 25.4762 26.7143 26.1429 26.7143ZM35.6667 26.7143C36.3333 26.7143 36.8571 26.18 36.8571 25.5C36.8571 24.82 36.3333 24.2857 35.6667 24.2857C35 24.2857 34.4762 24.82 34.4762 25.5C34.4762 26.18 35 26.7143 35.6667 26.7143ZM33.2857 26.7143C33.9524 26.7143 34.4762 26.18 34.4762 25.5C34.4762 24.82 33.9524 24.2857 33.2857 24.2857C32.619 24.2857 32.0952 24.82 32.0952 25.5C32.0952 26.18 32.619 26.7143 33.2857 26.7143ZM30.9048 26.7143C31.5714 26.7143 32.0952 26.18 32.0952 25.5C32.0952 24.82 31.5714 24.2857 30.9048 24.2857C30.2381 24.2857 29.7143 24.82 29.7143 25.5C29.7143 26.18 30.2381 26.7143 30.9048 26.7143ZM28.5238 26.7143C29.1905 26.7143 29.7143 26.18 29.7143 25.5C29.7143 24.82 29.1905 24.2857 28.5238 24.2857C27.8571 24.2857 27.3333 24.82 27.3333 25.5C27.3333 26.18 27.8571 26.7143 28.5238 26.7143ZM23.7619 26.7143C24.4286 26.7143 24.9524 26.18 24.9524 25.5C24.9524 24.82 24.4286 24.2857 23.7619 24.2857C23.0952 24.2857 22.5714 24.82 22.5714 25.5C22.5714 26.18 23.0952 26.7143 23.7619 26.7143ZM26.1429 29.1429C26.8095 29.1429 27.3333 28.6086 27.3333 27.9286C27.3333 27.2486 26.8095 26.7143 26.1429 26.7143C25.4762 26.7143 24.9524 27.2486 24.9524 27.9286C24.9524 28.6086 25.4762 29.1429 26.1429 29.1429ZM28.5238 29.1429C29.1905 29.1429 29.7143 28.6086 29.7143 27.9286C29.7143 27.2486 29.1905 26.7143 28.5238 26.7143C27.8571 26.7143 27.3333 27.2486 27.3333 27.9286C27.3333 28.6086 27.8571 29.1429 28.5238 29.1429ZM30.9048 29.1429C31.5714 29.1429 32.0952 28.6086 32.0952 27.9286C32.0952 27.2486 31.5714 26.7143 30.9048 26.7143C30.2381 26.7143 29.7143 27.2486 29.7143 27.9286C29.7143 28.6086 30.2381 29.1429 30.9048 29.1429ZM33.2857 29.1429C33.9524 29.1429 34.4762 28.6086 34.4762 27.9286C34.4762 27.2486 33.9524 26.7143 33.2857 26.7143C32.619 26.7143 32.0952 27.2486 32.0952 27.9286C32.0952 28.6086 32.619 29.1429 33.2857 29.1429ZM35.6667 29.1429C36.3333 29.1429 36.8571 28.6086 36.8571 27.9286C36.8571 27.2486 36.3333 26.7143 35.6667 26.7143C35 26.7143 34.4762 27.2486 34.4762 27.9286C34.4762 28.6086 35 29.1429 35.6667 29.1429ZM23.7619 29.1429C24.4286 29.1429 24.9524 28.6086 24.9524 27.9286C24.9524 27.2486 24.4286 26.7143 23.7619 26.7143C23.0952 26.7143 22.5714 27.2486 22.5714 27.9286C22.5714 28.6086 23.0952 29.1429 23.7619 29.1429Z" fill="#10223E"/>
<path d="M48.7143 2.42857C49.381 2.42857 49.9048 1.89429 49.9048 1.21429C49.9048 0.534286 49.381 0 48.7143 0C48.0476 0 47.5238 0.534286 47.5238 1.21429C47.5238 1.89429 48.0476 2.42857 48.7143 2.42857ZM51.0952 2.42857C51.7619 2.42857 52.2857 1.89429 52.2857 1.21429C52.2857 0.534286 51.7619 0 51.0952 0C50.4286 0 49.9048 0.534286 49.9048 1.21429C49.9048 1.89429 50.4286 2.42857 51.0952 2.42857ZM46.3333 4.85714C47 4.85714 47.5238 4.32286 47.5238 3.64286C47.5238 2.96286 47 2.42857 46.3333 2.42857C45.6667 2.42857 45.1429 2.96286 45.1429 3.64286C45.1429 4.32286 45.6667 4.85714 46.3333 4.85714ZM48.7143 4.85714C49.381 4.85714 49.9048 4.32286 49.9048 3.64286C49.9048 2.96286 49.381 2.42857 48.7143 2.42857C48.0476 2.42857 47.5238 2.96286 47.5238 3.64286C47.5238 4.32286 48.0476 4.85714 48.7143 4.85714ZM51.0952 4.85714C51.7619 4.85714 52.2857 4.32286 52.2857 3.64286C52.2857 2.96286 51.7619 2.42857 51.0952 2.42857C50.4286 2.42857 49.9048 2.96286 49.9048 3.64286C49.9048 4.32286 50.4286 4.85714 51.0952 4.85714ZM43.9524 7.28571C44.619 7.28571 45.1429 6.75143 45.1429 6.07143C45.1429 5.39143 44.619 4.85714 43.9524 4.85714C43.2857 4.85714 42.7619 5.39143 42.7619 6.07143C42.7619 6.75143 43.2857 7.28571 43.9524 7.28571ZM46.3333 7.28571C47 7.28571 47.5238 6.75143 47.5238 6.07143C47.5238 5.39143 47 4.85714 46.3333 4.85714C45.6667 4.85714 45.1429 5.39143 45.1429 6.07143C45.1429 6.75143 45.6667 7.28571 46.3333 7.28571ZM43.9524 9.71429C44.619 9.71429 45.1429 9.18 45.1429 8.5C45.1429 7.82 44.619 7.28571 43.9524 7.28571C43.2857 7.28571 42.7619 7.82 42.7619 8.5C42.7619 9.18 43.2857 9.71429 43.9524 9.71429ZM46.3333 9.71429C47 9.71429 47.5238 9.18 47.5238 8.5C47.5238 7.82 47 7.28571 46.3333 7.28571C45.6667 7.28571 45.1429 7.82 45.1429 8.5C45.1429 9.18 45.6667 9.71429 46.3333 9.71429ZM43.9524 12.1429C44.619 12.1429 45.1429 11.6086 45.1429 10.9286C45.1429 10.2486 44.619 9.71429 43.9524 9.71429C43.2857 9.71429 42.7619 10.2486 42.7619 10.9286C42.7619 11.6086 43.2857 12.1429 43.9524 12.1429ZM41.5714 12.1429C42.2381 12.1429 42.7619 11.6086 42.7619 10.9286C42.7619 10.2486 42.2381 9.71429 41.5714 9.71429C40.9048 9.71429 40.381 10.2486 40.381 10.9286C40.381 11.6086 40.9048 12.1429 41.5714 12.1429ZM43.9524 14.5714C44.619 14.5714 45.1429 14.0371 45.1429 13.3571C45.1429 12.6771 44.619 12.1429 43.9524 12.1429C43.2857 12.1429 42.7619 12.6771 42.7619 13.3571C42.7619 14.0371 43.2857 14.5714 43.9524 14.5714ZM41.5714 14.5714C42.2381 14.5714 42.7619 14.0371 42.7619 13.3571C42.7619 12.6771 42.2381 12.1429 41.5714 12.1429C40.9048 12.1429 40.381 12.6771 40.381 13.3571C40.381 14.0371 40.9048 14.5714 41.5714 14.5714ZM43.9524 17C44.619 17 45.1429 16.4657 45.1429 15.7857C45.1429 15.1057 44.619 14.5714 43.9524 14.5714C43.2857 14.5714 42.7619 15.1057 42.7619 15.7857C42.7619 16.4657 43.2857 17 43.9524 17ZM41.5714 17C42.2381 17 42.7619 16.4657 42.7619 15.7857C42.7619 15.1057 42.2381 14.5714 41.5714 14.5714C40.9048 14.5714 40.381 15.1057 40.381 15.7857C40.381 16.4657 40.9048 17 41.5714 17ZM43.9524 19.4286C44.619 19.4286 45.1429 18.8943 45.1429 18.2143C45.1429 17.5343 44.619 17 43.9524 17C43.2857 17 42.7619 17.5343 42.7619 18.2143C42.7619 18.8943 43.2857 19.4286 43.9524 19.4286ZM41.5714 19.4286C42.2381 19.4286 42.7619 18.8943 42.7619 18.2143C42.7619 17.5343 42.2381 17 41.5714 17C40.9048 17 40.381 17.5343 40.381 18.2143C40.381 18.8943 40.9048 19.4286 41.5714 19.4286ZM43.9524 21.8571C44.619 21.8571 45.1429 21.3229 45.1429 20.6429C45.1429 19.9629 44.619 19.4286 43.9524 19.4286C43.2857 19.4286 42.7619 19.9629 42.7619 20.6429C42.7619 21.3229 43.2857 21.8571 43.9524 21.8571ZM41.5714 21.8571C42.2381 21.8571 42.7619 21.3229 42.7619 20.6429C42.7619 19.9629 42.2381 19.4286 41.5714 19.4286C40.9048 19.4286 40.381 19.9629 40.381 20.6429C40.381 21.3229 40.9048 21.8571 41.5714 21.8571ZM43.9524 24.2857C44.619 24.2857 45.1429 23.7514 45.1429 23.0714C45.1429 22.3914 44.619 21.8571 43.9524 21.8571C43.2857 21.8571 42.7619 22.3914 42.7619 23.0714C42.7619 23.7514 43.2857 24.2857 43.9524 24.2857ZM41.5714 24.2857C42.2381 24.2857 42.7619 23.7514 42.7619 23.0714C42.7619 22.3914 42.2381 21.8571 41.5714 21.8571C40.9048 21.8571 40.381 22.3914 40.381 23.0714C40.381 23.7514 40.9048 24.2857 41.5714 24.2857ZM43.9524 26.7143C44.619 26.7143 45.1429 26.18 45.1429 25.5C45.1429 24.82 44.619 24.2857 43.9524 24.2857C43.2857 24.2857 42.7619 24.82 42.7619 25.5C42.7619 26.18 43.2857 26.7143 43.9524 26.7143ZM46.3333 26.7143C47 26.7143 47.5238 26.18 47.5238 25.5C47.5238 24.82 47 24.2857 46.3333 24.2857C45.6667 24.2857 45.1429 24.82 45.1429 25.5C45.1429 26.18 45.6667 26.7143 46.3333 26.7143ZM43.9524 29.1429C44.619 29.1429 45.1429 28.6086 45.1429 27.9286C45.1429 27.2486 44.619 26.7143 43.9524 26.7143C43.2857 26.7143 42.7619 27.2486 42.7619 27.9286C42.7619 28.6086 43.2857 29.1429 43.9524 29.1429ZM46.3333 29.1429C47 29.1429 47.5238 28.6086 47.5238 27.9286C47.5238 27.2486 47 26.7143 46.3333 26.7143C45.6667 26.7143 45.1429 27.2486 45.1429 27.9286C45.1429 28.6086 45.6667 29.1429 46.3333 29.1429ZM46.3333 31.5714C47 31.5714 47.5238 31.0371 47.5238 30.3571C47.5238 29.6771 47 29.1429 46.3333 29.1429C45.6667 29.1429 45.1429 29.6771 45.1429 30.3571C45.1429 31.0371 45.6667 31.5714 46.3333 31.5714ZM48.7143 31.5714C49.381 31.5714 49.9048 31.0371 49.9048 30.3571C49.9048 29.6771 49.381 29.1429 48.7143 29.1429C48.0476 29.1429 47.5238 29.6771 47.5238 30.3571C47.5238 31.0371 48.0476 31.5714 48.7143 31.5714ZM51.0952 31.5714C51.7619 31.5714 52.2857 31.0371 52.2857 30.3571C52.2857 29.6771 51.7619 29.1429 51.0952 29.1429C50.4286 29.1429 49.9048 29.6771 49.9048 30.3571C49.9048 31.0371 50.4286 31.5714 51.0952 31.5714ZM48.7143 34C49.381 34 49.9048 33.4657 49.9048 32.7857C49.9048 32.1057 49.381 31.5714 48.7143 31.5714C48.0476 31.5714 47.5238 32.1057 47.5238 32.7857C47.5238 33.4657 48.0476 34 48.7143 34ZM51.0952 34C51.7619 34 52.2857 33.4657 52.2857 32.7857C52.2857 32.1057 51.7619 31.5714 51.0952 31.5714C50.4286 31.5714 49.9048 32.1057 49.9048 32.7857C49.9048 33.4657 50.4286 34 51.0952 34Z" fill="#10223E"/>
<path d="M57 4.85714C57.6667 4.85714 58.1905 4.32286 58.1905 3.64286C58.1905 2.96286 57.6667 2.42857 57 2.42857C56.3333 2.42857 55.8095 2.96286 55.8095 3.64286C55.8095 4.32286 56.3333 4.85714 57 4.85714ZM59.381 4.85714C60.0476 4.85714 60.5714 4.32286 60.5714 3.64286C60.5714 2.96286 60.0476 2.42857 59.381 2.42857C58.7143 2.42857 58.1905 2.96286 58.1905 3.64286C58.1905 4.32286 58.7143 4.85714 59.381 4.85714ZM57 7.28571C57.6667 7.28571 58.1905 6.75143 58.1905 6.07143C58.1905 5.39143 57.6667 4.85714 57 4.85714C56.3333 4.85714 55.8095 5.39143 55.8095 6.07143C55.8095 6.75143 56.3333 7.28571 57 7.28571ZM59.381 7.28571C60.0476 7.28571 60.5714 6.75143 60.5714 6.07143C60.5714 5.39143 60.0476 4.85714 59.381 4.85714C58.7143 4.85714 58.1905 5.39143 58.1905 6.07143C58.1905 6.75143 58.7143 7.28571 59.381 7.28571ZM57 12.1429C57.6667 12.1429 58.1905 11.6086 58.1905 10.9286C58.1905 10.2486 57.6667 9.71429 57 9.71429C56.3333 9.71429 55.8095 10.2486 55.8095 10.9286C55.8095 11.6086 56.3333 12.1429 57 12.1429ZM59.381 12.1429C60.0476 12.1429 60.5714 11.6086 60.5714 10.9286C60.5714 10.2486 60.0476 9.71429 59.381 9.71429C58.7143 9.71429 58.1905 10.2486 58.1905 10.9286C58.1905 11.6086 58.7143 12.1429 59.381 12.1429ZM57 14.5714C57.6667 14.5714 58.1905 14.0371 58.1905 13.3571C58.1905 12.6771 57.6667 12.1429 57 12.1429C56.3333 12.1429 55.8095 12.6771 55.8095 13.3571C55.8095 14.0371 56.3333 14.5714 57 14.5714ZM59.381 14.5714C60.0476 14.5714 60.5714 14.0371 60.5714 13.3571C60.5714 12.6771 60.0476 12.1429 59.381 12.1429C58.7143 12.1429 58.1905 12.6771 58.1905 13.3571C58.1905 14.0371 58.7143 14.5714 59.381 14.5714ZM57 17C57.6667 17 58.1905 16.4657 58.1905 15.7857C58.1905 15.1057 57.6667 14.5714 57 14.5714C56.3333 14.5714 55.8095 15.1057 55.8095 15.7857C55.8095 16.4657 56.3333 17 57 17ZM59.381 17C60.0476 17 60.5714 16.4657 60.5714 15.7857C60.5714 15.1057 60.0476 14.5714 59.381 14.5714C58.7143 14.5714 58.1905 15.1057 58.1905 15.7857C58.1905 16.4657 58.7143 17 59.381 17ZM57 19.4286C57.6667 19.4286 58.1905 18.8943 58.1905 18.2143C58.1905 17.5343 57.6667 17 57 17C56.3333 17 55.8095 17.5343 55.8095 18.2143C55.8095 18.8943 56.3333 19.4286 57 19.4286ZM59.381 19.4286C60.0476 19.4286 60.5714 18.8943 60.5714 18.2143C60.5714 17.5343 60.0476 17 59.381 17C58.7143 17 58.1905 17.5343 58.1905 18.2143C58.1905 18.8943 58.7143 19.4286 59.381 19.4286ZM57 21.8571C57.6667 21.8571 58.1905 21.3229 58.1905 20.6429C58.1905 19.9629 57.6667 19.4286 57 19.4286C56.3333 19.4286 55.8095 19.9629 55.8095 20.6429C55.8095 21.3229 56.3333 21.8571 57 21.8571ZM59.381 21.8571C60.0476 21.8571 60.5714 21.3229 60.5714 20.6429C60.5714 19.9629 60.0476 19.4286 59.381 19.4286C58.7143 19.4286 58.1905 19.9629 58.1905 20.6429C58.1905 21.3229 58.7143 21.8571 59.381 21.8571ZM57 24.2857C57.6667 24.2857 58.1905 23.7514 58.1905 23.0714C58.1905 22.3914 57.6667 21.8571 57 21.8571C56.3333 21.8571 55.8095 22.3914 55.8095 23.0714C55.8095 23.7514 56.3333 24.2857 57 24.2857ZM59.381 24.2857C60.0476 24.2857 60.5714 23.7514 60.5714 23.0714C60.5714 22.3914 60.0476 21.8571 59.381 21.8571C58.7143 21.8571 58.1905 22.3914 58.1905 23.0714C58.1905 23.7514 58.7143 24.2857 59.381 24.2857ZM57 26.7143C57.6667 26.7143 58.1905 26.18 58.1905 25.5C58.1905 24.82 57.6667 24.2857 57 24.2857C56.3333 24.2857 55.8095 24.82 55.8095 25.5C55.8095 26.18 56.3333 26.7143 57 26.7143ZM59.381 26.7143C60.0476 26.7143 60.5714 26.18 60.5714 25.5C60.5714 24.82 60.0476 24.2857 59.381 24.2857C58.7143 24.2857 58.1905 24.82 58.1905 25.5C58.1905 26.18 58.7143 26.7143 59.381 26.7143ZM59.381 29.1429C60.0476 29.1429 60.5714 28.6086 60.5714 27.9286C60.5714 27.2486 60.0476 26.7143 59.381 26.7143C58.7143 26.7143 58.1905 27.2486 58.1905 27.9286C58.1905 28.6086 58.7143 29.1429 59.381 29.1429ZM57 29.1429C57.6667 29.1429 58.1905 28.6086 58.1905 27.9286C58.1905 27.2486 57.6667 26.7143 57 26.7143C56.3333 26.7143 55.8095 27.2486 55.8095 27.9286C55.8095 28.6086 56.3333 29.1429 57 29.1429Z" fill="#10223E"/>
<path d="M65.2857 2.42857C65.9524 2.42857 66.4762 1.89429 66.4762 1.21429C66.4762 0.534286 65.9524 0 65.2857 0C64.619 0 64.0952 0.534286 64.0952 1.21429C64.0952 1.89429 64.619 2.42857 65.2857 2.42857ZM67.6667 2.42857C68.3333 2.42857 68.8571 1.89429 68.8571 1.21429C68.8571 0.534286 68.3333 0 67.6667 0C67 0 66.4762 0.534286 66.4762 1.21429C66.4762 1.89429 67 2.42857 67.6667 2.42857ZM65.2857 4.85714C65.9524 4.85714 66.4762 4.32286 66.4762 3.64286C66.4762 2.96286 65.9524 2.42857 65.2857 2.42857C64.619 2.42857 64.0952 2.96286 64.0952 3.64286C64.0952 4.32286 64.619 4.85714 65.2857 4.85714ZM67.6667 4.85714C68.3333 4.85714 68.8571 4.32286 68.8571 3.64286C68.8571 2.96286 68.3333 2.42857 67.6667 2.42857C67 2.42857 66.4762 2.96286 66.4762 3.64286C66.4762 4.32286 67 4.85714 67.6667 4.85714ZM70.0476 4.85714C70.7143 4.85714 71.2381 4.32286 71.2381 3.64286C71.2381 2.96286 70.7143 2.42857 70.0476 2.42857C69.381 2.42857 68.8571 2.96286 68.8571 3.64286C68.8571 4.32286 69.381 4.85714 70.0476 4.85714ZM70.0476 7.28571C70.7143 7.28571 71.2381 6.75143 71.2381 6.07143C71.2381 5.39143 70.7143 4.85714 70.0476 4.85714C69.381 4.85714 68.8571 5.39143 68.8571 6.07143C68.8571 6.75143 69.381 7.28571 70.0476 7.28571ZM72.4286 7.28571C73.0952 7.28571 73.619 6.75143 73.619 6.07143C73.619 5.39143 73.0952 4.85714 72.4286 4.85714C71.7619 4.85714 71.2381 5.39143 71.2381 6.07143C71.2381 6.75143 71.7619 7.28571 72.4286 7.28571ZM70.0476 9.71429C70.7143 9.71429 71.2381 9.18 71.2381 8.5C71.2381 7.82 70.7143 7.28571 70.0476 7.28571C69.381 7.28571 68.8571 7.82 68.8571 8.5C68.8571 9.18 69.381 9.71429 70.0476 9.71429ZM72.4286 9.71429C73.0952 9.71429 73.619 9.18 73.619 8.5C73.619 7.82 73.0952 7.28571 72.4286 7.28571C71.7619 7.28571 71.2381 7.82 71.2381 8.5C71.2381 9.18 71.7619 9.71429 72.4286 9.71429ZM72.4286 12.1429C73.0952 12.1429 73.619 11.6086 73.619 10.9286C73.619 10.2486 73.0952 9.71429 72.4286 9.71429C71.7619 9.71429 71.2381 10.2486 71.2381 10.9286C71.2381 11.6086 71.7619 12.1429 72.4286 12.1429ZM74.8095 12.1429C75.4762 12.1429 76 11.6086 76 10.9286C76 10.2486 75.4762 9.71429 74.8095 9.71429C74.1429 9.71429 73.619 10.2486 73.619 10.9286C73.619 11.6086 74.1429 12.1429 74.8095 12.1429ZM72.4286 14.5714C73.0952 14.5714 73.619 14.0371 73.619 13.3571C73.619 12.6771 73.0952 12.1429 72.4286 12.1429C71.7619 12.1429 71.2381 12.6771 71.2381 13.3571C71.2381 14.0371 71.7619 14.5714 72.4286 14.5714ZM74.8095 14.5714C75.4762 14.5714 76 14.0371 76 13.3571C76 12.6771 75.4762 12.1429 74.8095 12.1429C74.1429 12.1429 73.619 12.6771 73.619 13.3571C73.619 14.0371 74.1429 14.5714 74.8095 14.5714ZM72.4286 17C73.0952 17 73.619 16.4657 73.619 15.7857C73.619 15.1057 73.0952 14.5714 72.4286 14.5714C71.7619 14.5714 71.2381 15.1057 71.2381 15.7857C71.2381 16.4657 71.7619 17 72.4286 17ZM74.8095 17C75.4762 17 76 16.4657 76 15.7857C76 15.1057 75.4762 14.5714 74.8095 14.5714C74.1429 14.5714 73.619 15.1057 73.619 15.7857C73.619 16.4657 74.1429 17 74.8095 17ZM72.4286 19.4286C73.0952 19.4286 73.619 18.8943 73.619 18.2143C73.619 17.5343 73.0952 17 72.4286 17C71.7619 17 71.2381 17.5343 71.2381 18.2143C71.2381 18.8943 71.7619 19.4286 72.4286 19.4286ZM74.8095 19.4286C75.4762 19.4286 76 18.8943 76 18.2143C76 17.5343 75.4762 17 74.8095 17C74.1429 17 73.619 17.5343 73.619 18.2143C73.619 18.8943 74.1429 19.4286 74.8095 19.4286ZM72.4286 21.8571C73.0952 21.8571 73.619 21.3229 73.619 20.6429C73.619 19.9629 73.0952 19.4286 72.4286 19.4286C71.7619 19.4286 71.2381 19.9629 71.2381 20.6429C71.2381 21.3229 71.7619 21.8571 72.4286 21.8571ZM74.8095 21.8571C75.4762 21.8571 76 21.3229 76 20.6429C76 19.9629 75.4762 19.4286 74.8095 19.4286C74.1429 19.4286 73.619 19.9629 73.619 20.6429C73.619 21.3229 74.1429 21.8571 74.8095 21.8571ZM72.4286 24.2857C73.0952 24.2857 73.619 23.7514 73.619 23.0714C73.619 22.3914 73.0952 21.8571 72.4286 21.8571C71.7619 21.8571 71.2381 22.3914 71.2381 23.0714C71.2381 23.7514 71.7619 24.2857 72.4286 24.2857ZM74.8095 24.2857C75.4762 24.2857 76 23.7514 76 23.0714C76 22.3914 75.4762 21.8571 74.8095 21.8571C74.1429 21.8571 73.619 22.3914 73.619 23.0714C73.619 23.7514 74.1429 24.2857 74.8095 24.2857ZM70.0476 26.7143C70.7143 26.7143 71.2381 26.18 71.2381 25.5C71.2381 24.82 70.7143 24.2857 70.0476 24.2857C69.381 24.2857 68.8571 24.82 68.8571 25.5C68.8571 26.18 69.381 26.7143 70.0476 26.7143ZM72.4286 26.7143C73.0952 26.7143 73.619 26.18 73.619 25.5C73.619 24.82 73.0952 24.2857 72.4286 24.2857C71.7619 24.2857 71.2381 24.82 71.2381 25.5C71.2381 26.18 71.7619 26.7143 72.4286 26.7143ZM70.0476 29.1429C70.7143 29.1429 71.2381 28.6086 71.2381 27.9286C71.2381 27.2486 70.7143 26.7143 70.0476 26.7143C69.381 26.7143 68.8571 27.2486 68.8571 27.9286C68.8571 28.6086 69.381 29.1429 70.0476 29.1429ZM72.4286 29.1429C73.0952 29.1429 73.619 28.6086 73.619 27.9286C73.619 27.2486 73.0952 26.7143 72.4286 26.7143C71.7619 26.7143 71.2381 27.2486 71.2381 27.9286C71.2381 28.6086 71.7619 29.1429 72.4286 29.1429ZM65.2857 31.5714C65.9524 31.5714 66.4762 31.0371 66.4762 30.3571C66.4762 29.6771 65.9524 29.1429 65.2857 29.1429C64.619 29.1429 64.0952 29.6771 64.0952 30.3571C64.0952 31.0371 64.619 31.5714 65.2857 31.5714ZM67.6667 31.5714C68.3333 31.5714 68.8571 31.0371 68.8571 30.3571C68.8571 29.6771 68.3333 29.1429 67.6667 29.1429C67 29.1429 66.4762 29.6771 66.4762 30.3571C66.4762 31.0371 67 31.5714 67.6667 31.5714ZM70.0476 31.5714C70.7143 31.5714 71.2381 31.0371 71.2381 30.3571C71.2381 29.6771 70.7143 29.1429 70.0476 29.1429C69.381 29.1429 68.8571 29.6771 68.8571 30.3571C68.8571 31.0371 69.381 31.5714 70.0476 31.5714ZM65.2857 34C65.9524 34 66.4762 33.4657 66.4762 32.7857C66.4762 32.1057 65.9524 31.5714 65.2857 31.5714C64.619 31.5714 64.0952 32.1057 64.0952 32.7857C64.0952 33.4657 64.619 34 65.2857 34ZM67.6667 34C68.3333 34 68.8571 33.4657 68.8571 32.7857C68.8571 32.1057 68.3333 31.5714 67.6667 31.5714C67 31.5714 66.4762 32.1057 66.4762 32.7857C66.4762 33.4657 67 34 67.6667 34Z" fill="#10223E"/>
<path d="M92.619 7.28571C93.2857 7.28571 93.8095 6.75143 93.8095 6.07143C93.8095 5.39143 93.2857 4.85714 92.619 4.85714C91.9524 4.85714 91.4286 5.39143 91.4286 6.07143C91.4286 6.75143 91.9524 7.28571 92.619 7.28571ZM85.4762 7.28571C86.1429 7.28571 86.6667 6.75143 86.6667 6.07143C86.6667 5.39143 86.1429 4.85714 85.4762 4.85714C84.8095 4.85714 84.2857 5.39143 84.2857 6.07143C84.2857 6.75143 84.8095 7.28571 85.4762 7.28571ZM87.8571 7.28571C88.5238 7.28571 89.0476 6.75143 89.0476 6.07143C89.0476 5.39143 88.5238 4.85714 87.8571 4.85714C87.1905 4.85714 86.6667 5.39143 86.6667 6.07143C86.6667 6.75143 87.1905 7.28571 87.8571 7.28571ZM90.2381 7.28571C90.9048 7.28571 91.4286 6.75143 91.4286 6.07143C91.4286 5.39143 90.9048 4.85714 90.2381 4.85714C89.5714 4.85714 89.0476 5.39143 89.0476 6.07143C89.0476 6.75143 89.5714 7.28571 90.2381 7.28571ZM83.0952 7.28571C83.7619 7.28571 84.2857 6.75143 84.2857 6.07143C84.2857 5.39143 83.7619 4.85714 83.0952 4.85714C82.4286 4.85714 81.9048 5.39143 81.9048 6.07143C81.9048 6.75143 82.4286 7.28571 83.0952 7.28571ZM95 9.71429C95.6667 9.71429 96.1905 9.18 96.1905 8.5C96.1905 7.82 95.6667 7.28571 95 7.28571C94.3333 7.28571 93.8095 7.82 93.8095 8.5C93.8095 9.18 94.3333 9.71429 95 9.71429ZM87.8571 9.71429C88.5238 9.71429 89.0476 9.18 89.0476 8.5C89.0476 7.82 88.5238 7.28571 87.8571 7.28571C87.1905 7.28571 86.6667 7.82 86.6667 8.5C86.6667 9.18 87.1905 9.71429 87.8571 9.71429ZM85.4762 9.71429C86.1429 9.71429 86.6667 9.18 86.6667 8.5C86.6667 7.82 86.1429 7.28571 85.4762 7.28571C84.8095 7.28571 84.2857 7.82 84.2857 8.5C84.2857 9.18 84.8095 9.71429 85.4762 9.71429ZM83.0952 9.71429C83.7619 9.71429 84.2857 9.18 84.2857 8.5C84.2857 7.82 83.7619 7.28571 83.0952 7.28571C82.4286 7.28571 81.9048 7.82 81.9048 8.5C81.9048 9.18 82.4286 9.71429 83.0952 9.71429ZM80.7143 9.71429C81.381 9.71429 81.9048 9.18 81.9048 8.5C81.9048 7.82 81.381 7.28571 80.7143 7.28571C80.0476 7.28571 79.5238 7.82 79.5238 8.5C79.5238 9.18 80.0476 9.71429 80.7143 9.71429ZM90.2381 9.71429C90.9048 9.71429 91.4286 9.18 91.4286 8.5C91.4286 7.82 90.9048 7.28571 90.2381 7.28571C89.5714 7.28571 89.0476 7.82 89.0476 8.5C89.0476 9.18 89.5714 9.71429 90.2381 9.71429ZM92.619 9.71429C93.2857 9.71429 93.8095 9.18 93.8095 8.5C93.8095 7.82 93.2857 7.28571 92.619 7.28571C91.9524 7.28571 91.4286 7.82 91.4286 8.5C91.4286 9.18 91.9524 9.71429 92.619 9.71429ZM92.619 12.1429C93.2857 12.1429 93.8095 11.6086 93.8095 10.9286C93.8095 10.2486 93.2857 9.71429 92.619 9.71429C91.9524 9.71429 91.4286 10.2486 91.4286 10.9286C91.4286 11.6086 91.9524 12.1429 92.619 12.1429ZM83.0952 12.1429C83.7619 12.1429 84.2857 11.6086 84.2857 10.9286C84.2857 10.2486 83.7619 9.71429 83.0952 9.71429C82.4286 9.71429 81.9048 10.2486 81.9048 10.9286C81.9048 11.6086 82.4286 12.1429 83.0952 12.1429ZM95 12.1429C95.6667 12.1429 96.1905 11.6086 96.1905 10.9286C96.1905 10.2486 95.6667 9.71429 95 9.71429C94.3333 9.71429 93.8095 10.2486 93.8095 10.9286C93.8095 11.6086 94.3333 12.1429 95 12.1429ZM80.7143 12.1429C81.381 12.1429 81.9048 11.6086 81.9048 10.9286C81.9048 10.2486 81.381 9.71429 80.7143 9.71429C80.0476 9.71429 79.5238 10.2486 79.5238 10.9286C79.5238 11.6086 80.0476 12.1429 80.7143 12.1429ZM85.4762 14.5714C86.1429 14.5714 86.6667 14.0371 86.6667 13.3571C86.6667 12.6771 86.1429 12.1429 85.4762 12.1429C84.8095 12.1429 84.2857 12.6771 84.2857 13.3571C84.2857 14.0371 84.8095 14.5714 85.4762 14.5714ZM83.0952 14.5714C83.7619 14.5714 84.2857 14.0371 84.2857 13.3571C84.2857 12.6771 83.7619 12.1429 83.0952 12.1429C82.4286 12.1429 81.9048 12.6771 81.9048 13.3571C81.9048 14.0371 82.4286 14.5714 83.0952 14.5714ZM80.7143 14.5714C81.381 14.5714 81.9048 14.0371 81.9048 13.3571C81.9048 12.6771 81.381 12.1429 80.7143 12.1429C80.0476 12.1429 79.5238 12.6771 79.5238 13.3571C79.5238 14.0371 80.0476 14.5714 80.7143 14.5714ZM90.2381 17C90.9048 17 91.4286 16.4657 91.4286 15.7857C91.4286 15.1057 90.9048 14.5714 90.2381 14.5714C89.5714 14.5714 89.0476 15.1057 89.0476 15.7857C89.0476 16.4657 89.5714 17 90.2381 17ZM83.0952 17C83.7619 17 84.2857 16.4657 84.2857 15.7857C84.2857 15.1057 83.7619 14.5714 83.0952 14.5714C82.4286 14.5714 81.9048 15.1057 81.9048 15.7857C81.9048 16.4657 82.4286 17 83.0952 17ZM85.4762 17C86.1429 17 86.6667 16.4657 86.6667 15.7857C86.6667 15.1057 86.1429 14.5714 85.4762 14.5714C84.8095 14.5714 84.2857 15.1057 84.2857 15.7857C84.2857 16.4657 84.8095 17 85.4762 17ZM87.8571 17C88.5238 17 89.0476 16.4657 89.0476 15.7857C89.0476 15.1057 88.5238 14.5714 87.8571 14.5714C87.1905 14.5714 86.6667 15.1057 86.6667 15.7857C86.6667 16.4657 87.1905 17 87.8571 17ZM92.619 19.4286C93.2857 19.4286 93.8095 18.8943 93.8095 18.2143C93.8095 17.5343 93.2857 17 92.619 17C91.9524 17 91.4286 17.5343 91.4286 18.2143C91.4286 18.8943 91.9524 19.4286 92.619 19.4286ZM85.4762 19.4286C86.1429 19.4286 86.6667 18.8943 86.6667 18.2143C86.6667 17.5343 86.1429 17 85.4762 17C84.8095 17 84.2857 17.5343 84.2857 18.2143C84.2857 18.8943 84.8095 19.4286 85.4762 19.4286ZM90.2381 19.4286C90.9048 19.4286 91.4286 18.8943 91.4286 18.2143C91.4286 17.5343 90.9048 17 90.2381 17C89.5714 17 89.0476 17.5343 89.0476 18.2143C89.0476 18.8943 89.5714 19.4286 90.2381 19.4286ZM87.8571 19.4286C88.5238 19.4286 89.0476 18.8943 89.0476 18.2143C89.0476 17.5343 88.5238 17 87.8571 17C87.1905 17 86.6667 17.5343 86.6667 18.2143C86.6667 18.8943 87.1905 19.4286 87.8571 19.4286ZM92.619 21.8571C93.2857 21.8571 93.8095 21.3229 93.8095 20.6429C93.8095 19.9629 93.2857 19.4286 92.619 19.4286C91.9524 19.4286 91.4286 19.9629 91.4286 20.6429C91.4286 21.3229 91.9524 21.8571 92.619 21.8571ZM90.2381 21.8571C90.9048 21.8571 91.4286 21.3229 91.4286 20.6429C91.4286 19.9629 90.9048 19.4286 90.2381 19.4286C89.5714 19.4286 89.0476 19.9629 89.0476 20.6429C89.0476 21.3229 89.5714 21.8571 90.2381 21.8571ZM95 21.8571C95.6667 21.8571 96.1905 21.3229 96.1905 20.6429C96.1905 19.9629 95.6667 19.4286 95 19.4286C94.3333 19.4286 93.8095 19.9629 93.8095 20.6429C93.8095 21.3229 94.3333 21.8571 95 21.8571ZM92.619 24.2857C93.2857 24.2857 93.8095 23.7514 93.8095 23.0714C93.8095 22.3914 93.2857 21.8571 92.619 21.8571C91.9524 21.8571 91.4286 22.3914 91.4286 23.0714C91.4286 23.7514 91.9524 24.2857 92.619 24.2857ZM95 24.2857C95.6667 24.2857 96.1905 23.7514 96.1905 23.0714C96.1905 22.3914 95.6667 21.8571 95 21.8571C94.3333 21.8571 93.8095 22.3914 93.8095 23.0714C93.8095 23.7514 94.3333 24.2857 95 24.2857ZM80.7143 24.2857C81.381 24.2857 81.9048 23.7514 81.9048 23.0714C81.9048 22.3914 81.381 21.8571 80.7143 21.8571C80.0476 21.8571 79.5238 22.3914 79.5238 23.0714C79.5238 23.7514 80.0476 24.2857 80.7143 24.2857ZM83.0952 24.2857C83.7619 24.2857 84.2857 23.7514 84.2857 23.0714C84.2857 22.3914 83.7619 21.8571 83.0952 21.8571C82.4286 21.8571 81.9048 22.3914 81.9048 23.0714C81.9048 23.7514 82.4286 24.2857 83.0952 24.2857ZM85.4762 26.7143C86.1429 26.7143 86.6667 26.18 86.6667 25.5C86.6667 24.82 86.1429 24.2857 85.4762 24.2857C84.8095 24.2857 84.2857 24.82 84.2857 25.5C84.2857 26.18 84.8095 26.7143 85.4762 26.7143ZM95 26.7143C95.6667 26.7143 96.1905 26.18 96.1905 25.5C96.1905 24.82 95.6667 24.2857 95 24.2857C94.3333 24.2857 93.8095 24.82 93.8095 25.5C93.8095 26.18 94.3333 26.7143 95 26.7143ZM92.619 26.7143C93.2857 26.7143 93.8095 26.18 93.8095 25.5C93.8095 24.82 93.2857 24.2857 92.619 24.2857C91.9524 24.2857 91.4286 24.82 91.4286 25.5C91.4286 26.18 91.9524 26.7143 92.619 26.7143ZM90.2381 26.7143C90.9048 26.7143 91.4286 26.18 91.4286 25.5C91.4286 24.82 90.9048 24.2857 90.2381 24.2857C89.5714 24.2857 89.0476 24.82 89.0476 25.5C89.0476 26.18 89.5714 26.7143 90.2381 26.7143ZM83.0952 26.7143C83.7619 26.7143 84.2857 26.18 84.2857 25.5C84.2857 24.82 83.7619 24.2857 83.0952 24.2857C82.4286 24.2857 81.9048 24.82 81.9048 25.5C81.9048 26.18 82.4286 26.7143 83.0952 26.7143ZM80.7143 26.7143C81.381 26.7143 81.9048 26.18 81.9048 25.5C81.9048 24.82 81.381 24.2857 80.7143 24.2857C80.0476 24.2857 79.5238 24.82 79.5238 25.5C79.5238 26.18 80.0476 26.7143 80.7143 26.7143ZM87.8571 26.7143C88.5238 26.7143 89.0476 26.18 89.0476 25.5C89.0476 24.82 88.5238 24.2857 87.8571 24.2857C87.1905 24.2857 86.6667 24.82 86.6667 25.5C86.6667 26.18 87.1905 26.7143 87.8571 26.7143ZM85.4762 29.1429C86.1429 29.1429 86.6667 28.6086 86.6667 27.9286C86.6667 27.2486 86.1429 26.7143 85.4762 26.7143C84.8095 26.7143 84.2857 27.2486 84.2857 27.9286C84.2857 28.6086 84.8095 29.1429 85.4762 29.1429ZM90.2381 29.1429C90.9048 29.1429 91.4286 28.6086 91.4286 27.9286C91.4286 27.2486 90.9048 26.7143 90.2381 26.7143C89.5714 26.7143 89.0476 27.2486 89.0476 27.9286C89.0476 28.6086 89.5714 29.1429 90.2381 29.1429ZM83.0952 29.1429C83.7619 29.1429 84.2857 28.6086 84.2857 27.9286C84.2857 27.2486 83.7619 26.7143 83.0952 26.7143C82.4286 26.7143 81.9048 27.2486 81.9048 27.9286C81.9048 28.6086 82.4286 29.1429 83.0952 29.1429ZM87.8571 29.1429C88.5238 29.1429 89.0476 28.6086 89.0476 27.9286C89.0476 27.2486 88.5238 26.7143 87.8571 26.7143C87.1905 26.7143 86.6667 27.2486 86.6667 27.9286C86.6667 28.6086 87.1905 29.1429 87.8571 29.1429ZM92.619 29.1429C93.2857 29.1429 93.8095 28.6086 93.8095 27.9286C93.8095 27.2486 93.2857 26.7143 92.619 26.7143C91.9524 26.7143 91.4286 27.2486 91.4286 27.9286C91.4286 28.6086 91.9524 29.1429 92.619 29.1429Z" fill="#10223E"/>
<path d="M100.905 7.28571C101.571 7.28571 102.095 6.75143 102.095 6.07143C102.095 5.39143 101.571 4.85714 100.905 4.85714C100.238 4.85714 99.7143 5.39143 99.7143 6.07143C99.7143 6.75143 100.238 7.28571 100.905 7.28571ZM103.286 7.28571C103.952 7.28571 104.476 6.75143 104.476 6.07143C104.476 5.39143 103.952 4.85714 103.286 4.85714C102.619 4.85714 102.095 5.39143 102.095 6.07143C102.095 6.75143 102.619 7.28571 103.286 7.28571ZM103.286 9.71429C103.952 9.71429 104.476 9.18 104.476 8.5C104.476 7.82 103.952 7.28571 103.286 7.28571C102.619 7.28571 102.095 7.82 102.095 8.5C102.095 9.18 102.619 9.71429 103.286 9.71429ZM100.905 9.71429C101.571 9.71429 102.095 9.18 102.095 8.5C102.095 7.82 101.571 7.28571 100.905 7.28571C100.238 7.28571 99.7143 7.82 99.7143 8.5C99.7143 9.18 100.238 9.71429 100.905 9.71429ZM103.286 12.1429C103.952 12.1429 104.476 11.6086 104.476 10.9286C104.476 10.2486 103.952 9.71429 103.286 9.71429C102.619 9.71429 102.095 10.2486 102.095 10.9286C102.095 11.6086 102.619 12.1429 103.286 12.1429ZM100.905 12.1429C101.571 12.1429 102.095 11.6086 102.095 10.9286C102.095 10.2486 101.571 9.71429 100.905 9.71429C100.238 9.71429 99.7143 10.2486 99.7143 10.9286C99.7143 11.6086 100.238 12.1429 100.905 12.1429ZM100.905 14.5714C101.571 14.5714 102.095 14.0371 102.095 13.3571C102.095 12.6771 101.571 12.1429 100.905 12.1429C100.238 12.1429 99.7143 12.6771 99.7143 13.3571C99.7143 14.0371 100.238 14.5714 100.905 14.5714ZM103.286 14.5714C103.952 14.5714 104.476 14.0371 104.476 13.3571C104.476 12.6771 103.952 12.1429 103.286 12.1429C102.619 12.1429 102.095 12.6771 102.095 13.3571C102.095 14.0371 102.619 14.5714 103.286 14.5714ZM103.286 17C103.952 17 104.476 16.4657 104.476 15.7857C104.476 15.1057 103.952 14.5714 103.286 14.5714C102.619 14.5714 102.095 15.1057 102.095 15.7857C102.095 16.4657 102.619 17 103.286 17ZM100.905 17C101.571 17 102.095 16.4657 102.095 15.7857C102.095 15.1057 101.571 14.5714 100.905 14.5714C100.238 14.5714 99.7143 15.1057 99.7143 15.7857C99.7143 16.4657 100.238 17 100.905 17ZM103.286 19.4286C103.952 19.4286 104.476 18.8943 104.476 18.2143C104.476 17.5343 103.952 17 103.286 17C102.619 17 102.095 17.5343 102.095 18.2143C102.095 18.8943 102.619 19.4286 103.286 19.4286ZM100.905 19.4286C101.571 19.4286 102.095 18.8943 102.095 18.2143C102.095 17.5343 101.571 17 100.905 17C100.238 17 99.7143 17.5343 99.7143 18.2143C99.7143 18.8943 100.238 19.4286 100.905 19.4286ZM100.905 21.8571C101.571 21.8571 102.095 21.3229 102.095 20.6429C102.095 19.9629 101.571 19.4286 100.905 19.4286C100.238 19.4286 99.7143 19.9629 99.7143 20.6429C99.7143 21.3229 100.238 21.8571 100.905 21.8571ZM103.286 21.8571C103.952 21.8571 104.476 21.3229 104.476 20.6429C104.476 19.9629 103.952 19.4286 103.286 19.4286C102.619 19.4286 102.095 19.9629 102.095 20.6429C102.095 21.3229 102.619 21.8571 103.286 21.8571ZM103.286 24.2857C103.952 24.2857 104.476 23.7514 104.476 23.0714C104.476 22.3914 103.952 21.8571 103.286 21.8571C102.619 21.8571 102.095 22.3914 102.095 23.0714C102.095 23.7514 102.619 24.2857 103.286 24.2857ZM100.905 24.2857C101.571 24.2857 102.095 23.7514 102.095 23.0714C102.095 22.3914 101.571 21.8571 100.905 21.8571C100.238 21.8571 99.7143 22.3914 99.7143 23.0714C99.7143 23.7514 100.238 24.2857 100.905 24.2857ZM103.286 26.7143C103.952 26.7143 104.476 26.18 104.476 25.5C104.476 24.82 103.952 24.2857 103.286 24.2857C102.619 24.2857 102.095 24.82 102.095 25.5C102.095 26.18 102.619 26.7143 103.286 26.7143ZM100.905 26.7143C101.571 26.7143 102.095 26.18 102.095 25.5C102.095 24.82 101.571 24.2857 100.905 24.2857C100.238 24.2857 99.7143 24.82 99.7143 25.5C99.7143 26.18 100.238 26.7143 100.905 26.7143ZM103.286 29.1429C103.952 29.1429 104.476 28.6086 104.476 27.9286C104.476 27.2486 103.952 26.7143 103.286 26.7143C102.619 26.7143 102.095 27.2486 102.095 27.9286C102.095 28.6086 102.619 29.1429 103.286 29.1429ZM100.905 29.1429C101.571 29.1429 102.095 28.6086 102.095 27.9286C102.095 27.2486 101.571 26.7143 100.905 26.7143C100.238 26.7143 99.7143 27.2486 99.7143 27.9286C99.7143 28.6086 100.238 29.1429 100.905 29.1429Z" fill="#10223E"/>
<path d="M118.714 7.28571C119.381 7.28571 119.905 6.75143 119.905 6.07143C119.905 5.39143 119.381 4.85714 118.714 4.85714C118.048 4.85714 117.524 5.39143 117.524 6.07143C117.524 6.75143 118.048 7.28571 118.714 7.28571ZM116.333 7.28571C117 7.28571 117.524 6.75143 117.524 6.07143C117.524 5.39143 117 4.85714 116.333 4.85714C115.667 4.85714 115.143 5.39143 115.143 6.07143C115.143 6.75143 115.667 7.28571 116.333 7.28571ZM121.095 7.28571C121.762 7.28571 122.286 6.75143 122.286 6.07143C122.286 5.39143 121.762 4.85714 121.095 4.85714C120.429 4.85714 119.905 5.39143 119.905 6.07143C119.905 6.75143 120.429 7.28571 121.095 7.28571ZM123.476 7.28571C124.143 7.28571 124.667 6.75143 124.667 6.07143C124.667 5.39143 124.143 4.85714 123.476 4.85714C122.81 4.85714 122.286 5.39143 122.286 6.07143C122.286 6.75143 122.81 7.28571 123.476 7.28571ZM113.952 7.28571C114.619 7.28571 115.143 6.75143 115.143 6.07143C115.143 5.39143 114.619 4.85714 113.952 4.85714C113.286 4.85714 112.762 5.39143 112.762 6.07143C112.762 6.75143 113.286 7.28571 113.952 7.28571ZM118.714 9.71429C119.381 9.71429 119.905 9.18 119.905 8.5C119.905 7.82 119.381 7.28571 118.714 7.28571C118.048 7.28571 117.524 7.82 117.524 8.5C117.524 9.18 118.048 9.71429 118.714 9.71429ZM111.571 9.71429C112.238 9.71429 112.762 9.18 112.762 8.5C112.762 7.82 112.238 7.28571 111.571 7.28571C110.905 7.28571 110.381 7.82 110.381 8.5C110.381 9.18 110.905 9.71429 111.571 9.71429ZM116.333 9.71429C117 9.71429 117.524 9.18 117.524 8.5C117.524 7.82 117 7.28571 116.333 7.28571C115.667 7.28571 115.143 7.82 115.143 8.5C115.143 9.18 115.667 9.71429 116.333 9.71429ZM125.857 9.71429C126.524 9.71429 127.048 9.18 127.048 8.5C127.048 7.82 126.524 7.28571 125.857 7.28571C125.19 7.28571 124.667 7.82 124.667 8.5C124.667 9.18 125.19 9.71429 125.857 9.71429ZM123.476 9.71429C124.143 9.71429 124.667 9.18 124.667 8.5C124.667 7.82 124.143 7.28571 123.476 7.28571C122.81 7.28571 122.286 7.82 122.286 8.5C122.286 9.18 122.81 9.71429 123.476 9.71429ZM121.095 9.71429C121.762 9.71429 122.286 9.18 122.286 8.5C122.286 7.82 121.762 7.28571 121.095 7.28571C120.429 7.28571 119.905 7.82 119.905 8.5C119.905 9.18 120.429 9.71429 121.095 9.71429ZM113.952 9.71429C114.619 9.71429 115.143 9.18 115.143 8.5C115.143 7.82 114.619 7.28571 113.952 7.28571C113.286 7.28571 112.762 7.82 112.762 8.5C112.762 9.18 113.286 9.71429 113.952 9.71429ZM113.952 12.1429C114.619 12.1429 115.143 11.6086 115.143 10.9286C115.143 10.2486 114.619 9.71429 113.952 9.71429C113.286 9.71429 112.762 10.2486 112.762 10.9286C112.762 11.6086 113.286 12.1429 113.952 12.1429ZM128.238 12.1429C128.905 12.1429 129.429 11.6086 129.429 10.9286C129.429 10.2486 128.905 9.71429 128.238 9.71429C127.571 9.71429 127.048 10.2486 127.048 10.9286C127.048 11.6086 127.571 12.1429 128.238 12.1429ZM109.19 12.1429C109.857 12.1429 110.381 11.6086 110.381 10.9286C110.381 10.2486 109.857 9.71429 109.19 9.71429C108.524 9.71429 108 10.2486 108 10.9286C108 11.6086 108.524 12.1429 109.19 12.1429ZM111.571 12.1429C112.238 12.1429 112.762 11.6086 112.762 10.9286C112.762 10.2486 112.238 9.71429 111.571 9.71429C110.905 9.71429 110.381 10.2486 110.381 10.9286C110.381 11.6086 110.905 12.1429 111.571 12.1429ZM125.857 12.1429C126.524 12.1429 127.048 11.6086 127.048 10.9286C127.048 10.2486 126.524 9.71429 125.857 9.71429C125.19 9.71429 124.667 10.2486 124.667 10.9286C124.667 11.6086 125.19 12.1429 125.857 12.1429ZM111.571 14.5714C112.238 14.5714 112.762 14.0371 112.762 13.3571C112.762 12.6771 112.238 12.1429 111.571 12.1429C110.905 12.1429 110.381 12.6771 110.381 13.3571C110.381 14.0371 110.905 14.5714 111.571 14.5714ZM109.19 14.5714C109.857 14.5714 110.381 14.0371 110.381 13.3571C110.381 12.6771 109.857 12.1429 109.19 12.1429C108.524 12.1429 108 12.6771 108 13.3571C108 14.0371 108.524 14.5714 109.19 14.5714ZM118.714 17C119.381 17 119.905 16.4657 119.905 15.7857C119.905 15.1057 119.381 14.5714 118.714 14.5714C118.048 14.5714 117.524 15.1057 117.524 15.7857C117.524 16.4657 118.048 17 118.714 17ZM121.095 17C121.762 17 122.286 16.4657 122.286 15.7857C122.286 15.1057 121.762 14.5714 121.095 14.5714C120.429 14.5714 119.905 15.1057 119.905 15.7857C119.905 16.4657 120.429 17 121.095 17ZM123.476 17C124.143 17 124.667 16.4657 124.667 15.7857C124.667 15.1057 124.143 14.5714 123.476 14.5714C122.81 14.5714 122.286 15.1057 122.286 15.7857C122.286 16.4657 122.81 17 123.476 17ZM125.857 17C126.524 17 127.048 16.4657 127.048 15.7857C127.048 15.1057 126.524 14.5714 125.857 14.5714C125.19 14.5714 124.667 15.1057 124.667 15.7857C124.667 16.4657 125.19 17 125.857 17ZM128.238 17C128.905 17 129.429 16.4657 129.429 15.7857C129.429 15.1057 128.905 14.5714 128.238 14.5714C127.571 14.5714 127.048 15.1057 127.048 15.7857C127.048 16.4657 127.571 17 128.238 17ZM111.571 17C112.238 17 112.762 16.4657 112.762 15.7857C112.762 15.1057 112.238 14.5714 111.571 14.5714C110.905 14.5714 110.381 15.1057 110.381 15.7857C110.381 16.4657 110.905 17 111.571 17ZM109.19 17C109.857 17 110.381 16.4657 110.381 15.7857C110.381 15.1057 109.857 14.5714 109.19 14.5714C108.524 14.5714 108 15.1057 108 15.7857C108 16.4657 108.524 17 109.19 17ZM109.19 19.4286C109.857 19.4286 110.381 18.8943 110.381 18.2143C110.381 17.5343 109.857 17 109.19 17C108.524 17 108 17.5343 108 18.2143C108 18.8943 108.524 19.4286 109.19 19.4286ZM111.571 19.4286C112.238 19.4286 112.762 18.8943 112.762 18.2143C112.762 17.5343 112.238 17 111.571 17C110.905 17 110.381 17.5343 110.381 18.2143C110.381 18.8943 110.905 19.4286 111.571 19.4286ZM123.476 19.4286C124.143 19.4286 124.667 18.8943 124.667 18.2143C124.667 17.5343 124.143 17 123.476 17C122.81 17 122.286 17.5343 122.286 18.2143C122.286 18.8943 122.81 19.4286 123.476 19.4286ZM125.857 19.4286C126.524 19.4286 127.048 18.8943 127.048 18.2143C127.048 17.5343 126.524 17 125.857 17C125.19 17 124.667 17.5343 124.667 18.2143C124.667 18.8943 125.19 19.4286 125.857 19.4286ZM121.095 19.4286C121.762 19.4286 122.286 18.8943 122.286 18.2143C122.286 17.5343 121.762 17 121.095 17C120.429 17 119.905 17.5343 119.905 18.2143C119.905 18.8943 120.429 19.4286 121.095 19.4286ZM128.238 19.4286C128.905 19.4286 129.429 18.8943 129.429 18.2143C129.429 17.5343 128.905 17 128.238 17C127.571 17 127.048 17.5343 127.048 18.2143C127.048 18.8943 127.571 19.4286 128.238 19.4286ZM118.714 19.4286C119.381 19.4286 119.905 18.8943 119.905 18.2143C119.905 17.5343 119.381 17 118.714 17C118.048 17 117.524 17.5343 117.524 18.2143C117.524 18.8943 118.048 19.4286 118.714 19.4286ZM111.571 21.8571C112.238 21.8571 112.762 21.3229 112.762 20.6429C112.762 19.9629 112.238 19.4286 111.571 19.4286C110.905 19.4286 110.381 19.9629 110.381 20.6429C110.381 21.3229 110.905 21.8571 111.571 21.8571ZM128.238 21.8571C128.905 21.8571 129.429 21.3229 129.429 20.6429C129.429 19.9629 128.905 19.4286 128.238 19.4286C127.571 19.4286 127.048 19.9629 127.048 20.6429C127.048 21.3229 127.571 21.8571 128.238 21.8571ZM125.857 21.8571C126.524 21.8571 127.048 21.3229 127.048 20.6429C127.048 19.9629 126.524 19.4286 125.857 19.4286C125.19 19.4286 124.667 19.9629 124.667 20.6429C124.667 21.3229 125.19 21.8571 125.857 21.8571ZM109.19 21.8571C109.857 21.8571 110.381 21.3229 110.381 20.6429C110.381 19.9629 109.857 19.4286 109.19 19.4286C108.524 19.4286 108 19.9629 108 20.6429C108 21.3229 108.524 21.8571 109.19 21.8571ZM113.952 24.2857C114.619 24.2857 115.143 23.7514 115.143 23.0714C115.143 22.3914 114.619 21.8571 113.952 21.8571C113.286 21.8571 112.762 22.3914 112.762 23.0714C112.762 23.7514 113.286 24.2857 113.952 24.2857ZM128.238 24.2857C128.905 24.2857 129.429 23.7514 129.429 23.0714C129.429 22.3914 128.905 21.8571 128.238 21.8571C127.571 21.8571 127.048 22.3914 127.048 23.0714C127.048 23.7514 127.571 24.2857 128.238 24.2857ZM109.19 24.2857C109.857 24.2857 110.381 23.7514 110.381 23.0714C110.381 22.3914 109.857 21.8571 109.19 21.8571C108.524 21.8571 108 22.3914 108 23.0714C108 23.7514 108.524 24.2857 109.19 24.2857ZM125.857 24.2857C126.524 24.2857 127.048 23.7514 127.048 23.0714C127.048 22.3914 126.524 21.8571 125.857 21.8571C125.19 21.8571 124.667 22.3914 124.667 23.0714C124.667 23.7514 125.19 24.2857 125.857 24.2857ZM111.571 24.2857C112.238 24.2857 112.762 23.7514 112.762 23.0714C112.762 22.3914 112.238 21.8571 111.571 21.8571C110.905 21.8571 110.381 22.3914 110.381 23.0714C110.381 23.7514 110.905 24.2857 111.571 24.2857ZM123.476 24.2857C124.143 24.2857 124.667 23.7514 124.667 23.0714C124.667 22.3914 124.143 21.8571 123.476 21.8571C122.81 21.8571 122.286 22.3914 122.286 23.0714C122.286 23.7514 122.81 24.2857 123.476 24.2857ZM113.952 26.7143C114.619 26.7143 115.143 26.18 115.143 25.5C115.143 24.82 114.619 24.2857 113.952 24.2857C113.286 24.2857 112.762 24.82 112.762 25.5C112.762 26.18 113.286 26.7143 113.952 26.7143ZM121.095 26.7143C121.762 26.7143 122.286 26.18 122.286 25.5C122.286 24.82 121.762 24.2857 121.095 24.2857C120.429 24.2857 119.905 24.82 119.905 25.5C119.905 26.18 120.429 26.7143 121.095 26.7143ZM123.476 26.7143C124.143 26.7143 124.667 26.18 124.667 25.5C124.667 24.82 124.143 24.2857 123.476 24.2857C122.81 24.2857 122.286 24.82 122.286 25.5C122.286 26.18 122.81 26.7143 123.476 26.7143ZM128.238 26.7143C128.905 26.7143 129.429 26.18 129.429 25.5C129.429 24.82 128.905 24.2857 128.238 24.2857C127.571 24.2857 127.048 24.82 127.048 25.5C127.048 26.18 127.571 26.7143 128.238 26.7143ZM116.333 26.7143C117 26.7143 117.524 26.18 117.524 25.5C117.524 24.82 117 24.2857 116.333 24.2857C115.667 24.2857 115.143 24.82 115.143 25.5C115.143 26.18 115.667 26.7143 116.333 26.7143ZM125.857 26.7143C126.524 26.7143 127.048 26.18 127.048 25.5C127.048 24.82 126.524 24.2857 125.857 24.2857C125.19 24.2857 124.667 24.82 124.667 25.5C124.667 26.18 125.19 26.7143 125.857 26.7143ZM118.714 26.7143C119.381 26.7143 119.905 26.18 119.905 25.5C119.905 24.82 119.381 24.2857 118.714 24.2857C118.048 24.2857 117.524 24.82 117.524 25.5C117.524 26.18 118.048 26.7143 118.714 26.7143ZM111.571 26.7143C112.238 26.7143 112.762 26.18 112.762 25.5C112.762 24.82 112.238 24.2857 111.571 24.2857C110.905 24.2857 110.381 24.82 110.381 25.5C110.381 26.18 110.905 26.7143 111.571 26.7143ZM128.238 29.1429C128.905 29.1429 129.429 28.6086 129.429 27.9286C129.429 27.2486 128.905 26.7143 128.238 26.7143C127.571 26.7143 127.048 27.2486 127.048 27.9286C127.048 28.6086 127.571 29.1429 128.238 29.1429ZM113.952 29.1429C114.619 29.1429 115.143 28.6086 115.143 27.9286C115.143 27.2486 114.619 26.7143 113.952 26.7143C113.286 26.7143 112.762 27.2486 112.762 27.9286C112.762 28.6086 113.286 29.1429 113.952 29.1429ZM116.333 29.1429C117 29.1429 117.524 28.6086 117.524 27.9286C117.524 27.2486 117 26.7143 116.333 26.7143C115.667 26.7143 115.143 27.2486 115.143 27.9286C115.143 28.6086 115.667 29.1429 116.333 29.1429ZM121.095 29.1429C121.762 29.1429 122.286 28.6086 122.286 27.9286C122.286 27.2486 121.762 26.7143 121.095 26.7143C120.429 26.7143 119.905 27.2486 119.905 27.9286C119.905 28.6086 120.429 29.1429 121.095 29.1429ZM123.476 29.1429C124.143 29.1429 124.667 28.6086 124.667 27.9286C124.667 27.2486 124.143 26.7143 123.476 26.7143C122.81 26.7143 122.286 27.2486 122.286 27.9286C122.286 28.6086 122.81 29.1429 123.476 29.1429ZM118.714 29.1429C119.381 29.1429 119.905 28.6086 119.905 27.9286C119.905 27.2486 119.381 26.7143 118.714 26.7143C118.048 26.7143 117.524 27.2486 117.524 27.9286C117.524 28.6086 118.048 29.1429 118.714 29.1429Z" fill="#10223E"/>
<path d="M136.524 7.28571C137.19 7.28571 137.714 6.75143 137.714 6.07143C137.714 5.39143 137.19 4.85714 136.524 4.85714C135.857 4.85714 135.333 5.39143 135.333 6.07143C135.333 6.75143 135.857 7.28571 136.524 7.28571ZM134.143 7.28571C134.81 7.28571 135.333 6.75143 135.333 6.07143C135.333 5.39143 134.81 4.85714 134.143 4.85714C133.476 4.85714 132.952 5.39143 132.952 6.07143C132.952 6.75143 133.476 7.28571 134.143 7.28571ZM150.81 7.28571C151.476 7.28571 152 6.75143 152 6.07143C152 5.39143 151.476 4.85714 150.81 4.85714C150.143 4.85714 149.619 5.39143 149.619 6.07143C149.619 6.75143 150.143 7.28571 150.81 7.28571ZM148.429 7.28571C149.095 7.28571 149.619 6.75143 149.619 6.07143C149.619 5.39143 149.095 4.85714 148.429 4.85714C147.762 4.85714 147.238 5.39143 147.238 6.07143C147.238 6.75143 147.762 7.28571 148.429 7.28571ZM136.524 9.71429C137.19 9.71429 137.714 9.18 137.714 8.5C137.714 7.82 137.19 7.28571 136.524 7.28571C135.857 7.28571 135.333 7.82 135.333 8.5C135.333 9.18 135.857 9.71429 136.524 9.71429ZM138.905 9.71429C139.571 9.71429 140.095 9.18 140.095 8.5C140.095 7.82 139.571 7.28571 138.905 7.28571C138.238 7.28571 137.714 7.82 137.714 8.5C137.714 9.18 138.238 9.71429 138.905 9.71429ZM134.143 9.71429C134.81 9.71429 135.333 9.18 135.333 8.5C135.333 7.82 134.81 7.28571 134.143 7.28571C133.476 7.28571 132.952 7.82 132.952 8.5C132.952 9.18 133.476 9.71429 134.143 9.71429ZM148.429 9.71429C149.095 9.71429 149.619 9.18 149.619 8.5C149.619 7.82 149.095 7.28571 148.429 7.28571C147.762 7.28571 147.238 7.82 147.238 8.5C147.238 9.18 147.762 9.71429 148.429 9.71429ZM150.81 9.71429C151.476 9.71429 152 9.18 152 8.5C152 7.82 151.476 7.28571 150.81 7.28571C150.143 7.28571 149.619 7.82 149.619 8.5C149.619 9.18 150.143 9.71429 150.81 9.71429ZM150.81 12.1429C151.476 12.1429 152 11.6086 152 10.9286C152 10.2486 151.476 9.71429 150.81 9.71429C150.143 9.71429 149.619 10.2486 149.619 10.9286C149.619 11.6086 150.143 12.1429 150.81 12.1429ZM136.524 12.1429C137.19 12.1429 137.714 11.6086 137.714 10.9286C137.714 10.2486 137.19 9.71429 136.524 9.71429C135.857 9.71429 135.333 10.2486 135.333 10.9286C135.333 11.6086 135.857 12.1429 136.524 12.1429ZM141.286 12.1429C141.952 12.1429 142.476 11.6086 142.476 10.9286C142.476 10.2486 141.952 9.71429 141.286 9.71429C140.619 9.71429 140.095 10.2486 140.095 10.9286C140.095 11.6086 140.619 12.1429 141.286 12.1429ZM138.905 12.1429C139.571 12.1429 140.095 11.6086 140.095 10.9286C140.095 10.2486 139.571 9.71429 138.905 9.71429C138.238 9.71429 137.714 10.2486 137.714 10.9286C137.714 11.6086 138.238 12.1429 138.905 12.1429ZM134.143 12.1429C134.81 12.1429 135.333 11.6086 135.333 10.9286C135.333 10.2486 134.81 9.71429 134.143 9.71429C133.476 9.71429 132.952 10.2486 132.952 10.9286C132.952 11.6086 133.476 12.1429 134.143 12.1429ZM148.429 12.1429C149.095 12.1429 149.619 11.6086 149.619 10.9286C149.619 10.2486 149.095 9.71429 148.429 9.71429C147.762 9.71429 147.238 10.2486 147.238 10.9286C147.238 11.6086 147.762 12.1429 148.429 12.1429ZM136.524 14.5714C137.19 14.5714 137.714 14.0371 137.714 13.3571C137.714 12.6771 137.19 12.1429 136.524 12.1429C135.857 12.1429 135.333 12.6771 135.333 13.3571C135.333 14.0371 135.857 14.5714 136.524 14.5714ZM138.905 14.5714C139.571 14.5714 140.095 14.0371 140.095 13.3571C140.095 12.6771 139.571 12.1429 138.905 12.1429C138.238 12.1429 137.714 12.6771 137.714 13.3571C137.714 14.0371 138.238 14.5714 138.905 14.5714ZM150.81 14.5714C151.476 14.5714 152 14.0371 152 13.3571C152 12.6771 151.476 12.1429 150.81 12.1429C150.143 12.1429 149.619 12.6771 149.619 13.3571C149.619 14.0371 150.143 14.5714 150.81 14.5714ZM148.429 14.5714C149.095 14.5714 149.619 14.0371 149.619 13.3571C149.619 12.6771 149.095 12.1429 148.429 12.1429C147.762 12.1429 147.238 12.6771 147.238 13.3571C147.238 14.0371 147.762 14.5714 148.429 14.5714ZM141.286 14.5714C141.952 14.5714 142.476 14.0371 142.476 13.3571C142.476 12.6771 141.952 12.1429 141.286 12.1429C140.619 12.1429 140.095 12.6771 140.095 13.3571C140.095 14.0371 140.619 14.5714 141.286 14.5714ZM134.143 14.5714C134.81 14.5714 135.333 14.0371 135.333 13.3571C135.333 12.6771 134.81 12.1429 134.143 12.1429C133.476 12.1429 132.952 12.6771 132.952 13.3571C132.952 14.0371 133.476 14.5714 134.143 14.5714ZM143.667 14.5714C144.333 14.5714 144.857 14.0371 144.857 13.3571C144.857 12.6771 144.333 12.1429 143.667 12.1429C143 12.1429 142.476 12.6771 142.476 13.3571C142.476 14.0371 143 14.5714 143.667 14.5714ZM141.286 17C141.952 17 142.476 16.4657 142.476 15.7857C142.476 15.1057 141.952 14.5714 141.286 14.5714C140.619 14.5714 140.095 15.1057 140.095 15.7857C140.095 16.4657 140.619 17 141.286 17ZM146.048 17C146.714 17 147.238 16.4657 147.238 15.7857C147.238 15.1057 146.714 14.5714 146.048 14.5714C145.381 14.5714 144.857 15.1057 144.857 15.7857C144.857 16.4657 145.381 17 146.048 17ZM143.667 17C144.333 17 144.857 16.4657 144.857 15.7857C144.857 15.1057 144.333 14.5714 143.667 14.5714C143 14.5714 142.476 15.1057 142.476 15.7857C142.476 16.4657 143 17 143.667 17ZM150.81 17C151.476 17 152 16.4657 152 15.7857C152 15.1057 151.476 14.5714 150.81 14.5714C150.143 14.5714 149.619 15.1057 149.619 15.7857C149.619 16.4657 150.143 17 150.81 17ZM148.429 17C149.095 17 149.619 16.4657 149.619 15.7857C149.619 15.1057 149.095 14.5714 148.429 14.5714C147.762 14.5714 147.238 15.1057 147.238 15.7857C147.238 16.4657 147.762 17 148.429 17ZM136.524 17C137.19 17 137.714 16.4657 137.714 15.7857C137.714 15.1057 137.19 14.5714 136.524 14.5714C135.857 14.5714 135.333 15.1057 135.333 15.7857C135.333 16.4657 135.857 17 136.524 17ZM134.143 17C134.81 17 135.333 16.4657 135.333 15.7857C135.333 15.1057 134.81 14.5714 134.143 14.5714C133.476 14.5714 132.952 15.1057 132.952 15.7857C132.952 16.4657 133.476 17 134.143 17ZM148.429 19.4286C149.095 19.4286 149.619 18.8943 149.619 18.2143C149.619 17.5343 149.095 17 148.429 17C147.762 17 147.238 17.5343 147.238 18.2143C147.238 18.8943 147.762 19.4286 148.429 19.4286ZM146.048 19.4286C146.714 19.4286 147.238 18.8943 147.238 18.2143C147.238 17.5343 146.714 17 146.048 17C145.381 17 144.857 17.5343 144.857 18.2143C144.857 18.8943 145.381 19.4286 146.048 19.4286ZM143.667 19.4286C144.333 19.4286 144.857 18.8943 144.857 18.2143C144.857 17.5343 144.333 17 143.667 17C143 17 142.476 17.5343 142.476 18.2143C142.476 18.8943 143 19.4286 143.667 19.4286ZM150.81 19.4286C151.476 19.4286 152 18.8943 152 18.2143C152 17.5343 151.476 17 150.81 17C150.143 17 149.619 17.5343 149.619 18.2143C149.619 18.8943 150.143 19.4286 150.81 19.4286ZM136.524 19.4286C137.19 19.4286 137.714 18.8943 137.714 18.2143C137.714 17.5343 137.19 17 136.524 17C135.857 17 135.333 17.5343 135.333 18.2143C135.333 18.8943 135.857 19.4286 136.524 19.4286ZM134.143 19.4286C134.81 19.4286 135.333 18.8943 135.333 18.2143C135.333 17.5343 134.81 17 134.143 17C133.476 17 132.952 17.5343 132.952 18.2143C132.952 18.8943 133.476 19.4286 134.143 19.4286ZM134.143 21.8571C134.81 21.8571 135.333 21.3229 135.333 20.6429C135.333 19.9629 134.81 19.4286 134.143 19.4286C133.476 19.4286 132.952 19.9629 132.952 20.6429C132.952 21.3229 133.476 21.8571 134.143 21.8571ZM150.81 21.8571C151.476 21.8571 152 21.3229 152 20.6429C152 19.9629 151.476 19.4286 150.81 19.4286C150.143 19.4286 149.619 19.9629 149.619 20.6429C149.619 21.3229 150.143 21.8571 150.81 21.8571ZM148.429 21.8571C149.095 21.8571 149.619 21.3229 149.619 20.6429C149.619 19.9629 149.095 19.4286 148.429 19.4286C147.762 19.4286 147.238 19.9629 147.238 20.6429C147.238 21.3229 147.762 21.8571 148.429 21.8571ZM146.048 21.8571C146.714 21.8571 147.238 21.3229 147.238 20.6429C147.238 19.9629 146.714 19.4286 146.048 19.4286C145.381 19.4286 144.857 19.9629 144.857 20.6429C144.857 21.3229 145.381 21.8571 146.048 21.8571ZM136.524 21.8571C137.19 21.8571 137.714 21.3229 137.714 20.6429C137.714 19.9629 137.19 19.4286 136.524 19.4286C135.857 19.4286 135.333 19.9629 135.333 20.6429C135.333 21.3229 135.857 21.8571 136.524 21.8571ZM134.143 24.2857C134.81 24.2857 135.333 23.7514 135.333 23.0714C135.333 22.3914 134.81 21.8571 134.143 21.8571C133.476 21.8571 132.952 22.3914 132.952 23.0714C132.952 23.7514 133.476 24.2857 134.143 24.2857ZM150.81 24.2857C151.476 24.2857 152 23.7514 152 23.0714C152 22.3914 151.476 21.8571 150.81 21.8571C150.143 21.8571 149.619 22.3914 149.619 23.0714C149.619 23.7514 150.143 24.2857 150.81 24.2857ZM148.429 24.2857C149.095 24.2857 149.619 23.7514 149.619 23.0714C149.619 22.3914 149.095 21.8571 148.429 21.8571C147.762 21.8571 147.238 22.3914 147.238 23.0714C147.238 23.7514 147.762 24.2857 148.429 24.2857ZM136.524 24.2857C137.19 24.2857 137.714 23.7514 137.714 23.0714C137.714 22.3914 137.19 21.8571 136.524 21.8571C135.857 21.8571 135.333 22.3914 135.333 23.0714C135.333 23.7514 135.857 24.2857 136.524 24.2857ZM134.143 26.7143C134.81 26.7143 135.333 26.18 135.333 25.5C135.333 24.82 134.81 24.2857 134.143 24.2857C133.476 24.2857 132.952 24.82 132.952 25.5C132.952 26.18 133.476 26.7143 134.143 26.7143ZM150.81 26.7143C151.476 26.7143 152 26.18 152 25.5C152 24.82 151.476 24.2857 150.81 24.2857C150.143 24.2857 149.619 24.82 149.619 25.5C149.619 26.18 150.143 26.7143 150.81 26.7143ZM148.429 26.7143C149.095 26.7143 149.619 26.18 149.619 25.5C149.619 24.82 149.095 24.2857 148.429 24.2857C147.762 24.2857 147.238 24.82 147.238 25.5C147.238 26.18 147.762 26.7143 148.429 26.7143ZM136.524 26.7143C137.19 26.7143 137.714 26.18 137.714 25.5C137.714 24.82 137.19 24.2857 136.524 24.2857C135.857 24.2857 135.333 24.82 135.333 25.5C135.333 26.18 135.857 26.7143 136.524 26.7143ZM134.143 29.1429C134.81 29.1429 135.333 28.6086 135.333 27.9286C135.333 27.2486 134.81 26.7143 134.143 26.7143C133.476 26.7143 132.952 27.2486 132.952 27.9286C132.952 28.6086 133.476 29.1429 134.143 29.1429ZM136.524 29.1429C137.19 29.1429 137.714 28.6086 137.714 27.9286C137.714 27.2486 137.19 26.7143 136.524 26.7143C135.857 26.7143 135.333 27.2486 135.333 27.9286C135.333 28.6086 135.857 29.1429 136.524 29.1429ZM148.429 29.1429C149.095 29.1429 149.619 28.6086 149.619 27.9286C149.619 27.2486 149.095 26.7143 148.429 26.7143C147.762 26.7143 147.238 27.2486 147.238 27.9286C147.238 28.6086 147.762 29.1429 148.429 29.1429ZM150.81 29.1429C151.476 29.1429 152 28.6086 152 27.9286C152 27.2486 151.476 26.7143 150.81 26.7143C150.143 26.7143 149.619 27.2486 149.619 27.9286C149.619 28.6086 150.143 29.1429 150.81 29.1429Z" fill="#10223E"/>
</svg>
